<?xml version="1.0" encoding="UTF-8"?>
<svg version="1.1" xmlns="http://www.w3.org/2000/svg" width="400" height="400">
<path d="M0 0 C0.86925078 0.00092179 1.73850157 0.00184359 2.63409328 0.00279331 C3.62833813 0.00141865 4.62258297 0.00004398 5.64695644 -0.00137234 C6.74674831 0.00222294 7.84654018 0.00581821 8.97965908 0.00952244 C10.70626011 0.0093034 10.70626011 0.0093034 12.46774197 0.00907993 C16.29326635 0.00977965 20.11874275 0.0175748 23.94425869 0.02539158 C26.58841837 0.02725555 29.2325784 0.02867955 31.87673855 0.0296793 C38.13825661 0.03279234 44.3997573 0.04100535 50.6612677 0.05102879 C57.78811781 0.06219078 64.91496874 0.06770059 72.04182541 0.07272422 C86.70592674 0.08318799 101.37001435 0.10078689 116.03410244 0.12304783 C116.03410244 0.78304783 116.03410244 1.44304783 116.03410244 2.12304783 C116.71472744 2.04054783 117.39535244 1.95804783 118.09660244 1.87304783 C122.20285909 2.22251648 124.55732139 3.94153815 128.03410244 6.12304783 C128.03410244 6.78304783 128.03410244 7.44304783 128.03410244 8.12304783 C128.69410244 8.12304783 129.35410244 8.12304783 130.03410244 8.12304783 C130.03410244 8.78304783 130.03410244 9.44304783 130.03410244 10.12304783 C130.69410244 10.12304783 131.35410244 10.12304783 132.03410244 10.12304783 C135.93711965 17.02302469 137.11891505 23.23729459 136.03410244 31.12304783 C134.98982597 34.30989153 133.68388916 37.20646059 132.03410244 40.12304783 C131.37410244 40.12304783 130.71410244 40.12304783 130.03410244 40.12304783 C130.03410244 40.78304783 130.03410244 41.44304783 130.03410244 42.12304783 C129.37410244 42.12304783 128.71410244 42.12304783 128.03410244 42.12304783 C128.03410244 42.78304783 128.03410244 43.44304783 128.03410244 44.12304783 C127.37410244 44.12304783 126.71410244 44.12304783 126.03410244 44.12304783 C126.03410244 44.78304783 126.03410244 45.44304783 126.03410244 46.12304783 C124.71410244 46.12304783 123.39410244 46.12304783 122.03410244 46.12304783 C122.03410244 46.78304783 122.03410244 47.44304783 122.03410244 48.12304783 C120.05410244 48.12304783 118.07410244 48.12304783 116.03410244 48.12304783 C116.03410244 48.78304783 116.03410244 49.44304783 116.03410244 50.12304783 C115.07109219 50.14810398 114.10808193 50.17316013 113.11588955 50.19897556 C109.51697627 50.29369053 105.91822744 50.39375035 102.31950283 50.49536228 C100.7668078 50.53847028 99.2140727 50.58016051 97.66129971 50.62036228 C95.41955941 50.67865473 93.1780164 50.74217361 90.93644619 50.80664158 C89.90788761 50.83171032 89.90788761 50.83171032 88.85855007 50.8572855 C85.76299983 50.95081101 82.77205091 51.16251906 79.7079916 51.62403965 C76.2363723 52.0955744 72.928177 52.27297154 69.42790127 52.31250095 C67.52606831 52.33757725 67.52606831 52.33757725 65.58581448 52.36316013 C64.91852133 52.36984211 64.25122818 52.37652409 63.56371403 52.38340855 C61.45746959 52.40463712 59.35136637 52.43163724 57.24520779 52.46008396 C52.0197813 52.52951087 46.79425355 52.58932293 41.56870937 52.64910984 C37.13930571 52.70012093 32.70998173 52.75494375 28.28069019 52.8149271 C26.20900142 52.84140964 24.13730458 52.86227118 22.0655508 52.88293552 C20.17790257 52.90801182 20.17790257 52.90801182 18.25212002 52.9335947 C16.59168415 52.95238682 16.59168415 52.95238682 14.89770412 52.97155857 C12.44093417 53.10152576 10.37789781 53.41300454 8.03410244 54.12304783 C8.03410244 54.78304783 8.03410244 55.44304783 8.03410244 56.12304783 C6.15910244 58.24804783 6.15910244 58.24804783 4.03410244 60.12304783 C3.37410244 60.12304783 2.71410244 60.12304783 2.03410244 60.12304783 C2.03410244 60.78304783 2.03410244 61.44304783 2.03410244 62.12304783 C1.37410244 62.12304783 0.71410244 62.12304783 0.03410244 62.12304783 C0.03410244 62.78304783 0.03410244 63.44304783 0.03410244 64.12304783 C-0.62589756 64.12304783 -1.28589756 64.12304783 -1.96589756 64.12304783 C-1.96589756 64.78304783 -1.96589756 65.44304783 -1.96589756 66.12304783 C-2.62589756 66.12304783 -3.28589756 66.12304783 -3.96589756 66.12304783 C-3.96589756 66.78304783 -3.96589756 67.44304783 -3.96589756 68.12304783 C-4.62589756 68.12304783 -5.28589756 68.12304783 -5.96589756 68.12304783 C-5.96589756 68.78304783 -5.96589756 69.44304783 -5.96589756 70.12304783 C-6.62589756 70.12304783 -7.28589756 70.12304783 -7.96589756 70.12304783 C-7.96589756 70.78304783 -7.96589756 71.44304783 -7.96589756 72.12304783 C-8.62589756 72.12304783 -9.28589756 72.12304783 -9.96589756 72.12304783 C-9.96589756 72.78304783 -9.96589756 73.44304783 -9.96589756 74.12304783 C-10.62589756 74.12304783 -11.28589756 74.12304783 -11.96589756 74.12304783 C-11.96589756 74.78304783 -11.96589756 75.44304783 -11.96589756 76.12304783 C-12.62589756 76.12304783 -13.28589756 76.12304783 -13.96589756 76.12304783 C-13.96589756 76.78304783 -13.96589756 77.44304783 -13.96589756 78.12304783 C-14.62589756 78.12304783 -15.28589756 78.12304783 -15.96589756 78.12304783 C-15.96589756 78.78304783 -15.96589756 79.44304783 -15.96589756 80.12304783 C-16.62589756 80.12304783 -17.28589756 80.12304783 -17.96589756 80.12304783 C-17.96589756 80.78304783 -17.96589756 81.44304783 -17.96589756 82.12304783 C-18.62589756 82.12304783 -19.28589756 82.12304783 -19.96589756 82.12304783 C-19.96589756 82.78304783 -19.96589756 83.44304783 -19.96589756 84.12304783 C-20.62589756 84.12304783 -21.28589756 84.12304783 -21.96589756 84.12304783 C-21.96589756 84.78304783 -21.96589756 85.44304783 -21.96589756 86.12304783 C-22.62589756 86.12304783 -23.28589756 86.12304783 -23.96589756 86.12304783 C-23.96589756 86.78304783 -23.96589756 87.44304783 -23.96589756 88.12304783 C-24.62589756 88.12304783 -25.28589756 88.12304783 -25.96589756 88.12304783 C-26.05999912 88.69539158 -26.15410069 89.26773533 -26.25105381 89.85742283 C-27.13101505 92.64637102 -28.46404908 94.19581669 -30.40339756 96.37304783 C-31.0208585 97.07945408 -31.63831944 97.78586033 -32.27449131 98.51367283 C-33.96589756 100.12304783 -33.96589756 100.12304783 -35.96589756 100.12304783 C-35.96589756 100.78304783 -35.96589756 101.44304783 -35.96589756 102.12304783 C-36.62589756 102.12304783 -37.28589756 102.12304783 -37.96589756 102.12304783 C-37.96589756 102.78304783 -37.96589756 103.44304783 -37.96589756 104.12304783 C-38.62589756 104.12304783 -39.28589756 104.12304783 -39.96589756 104.12304783 C-39.96589756 104.78304783 -39.96589756 105.44304783 -39.96589756 106.12304783 C-40.62589756 106.12304783 -41.28589756 106.12304783 -41.96589756 106.12304783 C-41.96589756 106.78304783 -41.96589756 107.44304783 -41.96589756 108.12304783 C-42.62589756 108.12304783 -43.28589756 108.12304783 -43.96589756 108.12304783 C-43.96589756 108.78304783 -43.96589756 109.44304783 -43.96589756 110.12304783 C-44.62589756 110.12304783 -45.28589756 110.12304783 -45.96589756 110.12304783 C-45.96589756 110.78304783 -45.96589756 111.44304783 -45.96589756 112.12304783 C-46.62589756 112.12304783 -47.28589756 112.12304783 -47.96589756 112.12304783 C-47.96589756 112.78304783 -47.96589756 113.44304783 -47.96589756 114.12304783 C-48.62589756 114.12304783 -49.28589756 114.12304783 -49.96589756 114.12304783 C-50.201796 114.6773447 -50.43769444 115.23164158 -50.68074131 115.80273533 C-52.27854306 118.68752025 -54.28440765 120.83476815 -56.52839756 123.24804783 C-59.60308942 126.43812292 -59.60308942 126.43812292 -61.96589756 130.12304783 C-62.62589756 130.12304783 -63.28589756 130.12304783 -63.96589756 130.12304783 C-63.96589756 130.78304783 -63.96589756 131.44304783 -63.96589756 132.12304783 C-64.62589756 132.12304783 -65.28589756 132.12304783 -65.96589756 132.12304783 C-65.96589756 132.78304783 -65.96589756 133.44304783 -65.96589756 134.12304783 C-66.62589756 134.12304783 -67.28589756 134.12304783 -67.96589756 134.12304783 C-67.96589756 134.78304783 -67.96589756 135.44304783 -67.96589756 136.12304783 C-68.62589756 136.12304783 -69.28589756 136.12304783 -69.96589756 136.12304783 C-69.96589756 136.78304783 -69.96589756 137.44304783 -69.96589756 138.12304783 C-70.62589756 138.12304783 -71.28589756 138.12304783 -71.96589756 138.12304783 C-71.96589756 138.78304783 -71.96589756 139.44304783 -71.96589756 140.12304783 C-72.62589756 140.12304783 -73.28589756 140.12304783 -73.96589756 140.12304783 C-73.96589756 140.78304783 -73.96589756 141.44304783 -73.96589756 142.12304783 C-74.62589756 142.12304783 -75.28589756 142.12304783 -75.96589756 142.12304783 C-75.96589756 142.78304783 -75.96589756 143.44304783 -75.96589756 144.12304783 C-76.62589756 144.12304783 -77.28589756 144.12304783 -77.96589756 144.12304783 C-77.96589756 144.78304783 -77.96589756 145.44304783 -77.96589756 146.12304783 C-78.62589756 146.12304783 -79.28589756 146.12304783 -79.96589756 146.12304783 C-79.96589756 146.78304783 -79.96589756 147.44304783 -79.96589756 148.12304783 C-80.62589756 148.12304783 -81.28589756 148.12304783 -81.96589756 148.12304783 C-82.62589756 149.44304783 -83.28589756 150.76304783 -83.96589756 152.12304783 C-84.62589756 152.12304783 -85.28589756 152.12304783 -85.96589756 152.12304783 C-85.96589756 152.78304783 -85.96589756 153.44304783 -85.96589756 154.12304783 C-86.62589756 154.12304783 -87.28589756 154.12304783 -87.96589756 154.12304783 C-87.96589756 154.78304783 -87.96589756 155.44304783 -87.96589756 156.12304783 C-88.62589756 156.12304783 -89.28589756 156.12304783 -89.96589756 156.12304783 C-89.96589756 156.78304783 -89.96589756 157.44304783 -89.96589756 158.12304783 C-90.62589756 158.12304783 -91.28589756 158.12304783 -91.96589756 158.12304783 C-91.96589756 158.78304783 -91.96589756 159.44304783 -91.96589756 160.12304783 C-92.62589756 160.12304783 -93.28589756 160.12304783 -93.96589756 160.12304783 C-93.96589756 160.78304783 -93.96589756 161.44304783 -93.96589756 162.12304783 C-95.28589756 162.12304783 -96.60589756 162.12304783 -97.96589756 162.12304783 C-97.96589756 162.78304783 -97.96589756 163.44304783 -97.96589756 164.12304783 C-99.28589756 164.12304783 -100.60589756 164.12304783 -101.96589756 164.12304783 C-101.96589756 164.78304783 -101.96589756 165.44304783 -101.96589756 166.12304783 C-103.28589756 166.12304783 -104.60589756 166.12304783 -105.96589756 166.12304783 C-105.96589756 166.78304783 -105.96589756 167.44304783 -105.96589756 168.12304783 C-108.60589756 168.12304783 -111.24589756 168.12304783 -113.96589756 168.12304783 C-113.96589756 168.78304783 -113.96589756 169.44304783 -113.96589756 170.12304783 C-129.6559737 170.1697786 -145.34603104 170.20504195 -161.03615952 170.22667217 C-168.32143767 170.23698262 -175.60667256 170.25103852 -182.89192295 170.27392673 C-189.24210477 170.2938677 -195.59225525 170.30676595 -201.94246751 170.31122482 C-205.30453133 170.313831 -208.66650553 170.31995183 -212.02854061 170.33450794 C-215.78269774 170.34899135 -219.53666823 170.35102706 -223.29084873 170.35009861 C-224.40431171 170.35728916 -225.5177747 170.36447971 -226.66497898 170.37188816 C-227.68996494 170.36913883 -228.7149509 170.3663895 -229.77099705 170.36355686 C-230.65868369 170.36540045 -231.54637033 170.36724403 -232.46095657 170.36914349 C-235.25886267 170.09426574 -237.41528551 169.27794605 -239.96589756 168.12304783 C-239.96589756 167.46304783 -239.96589756 166.80304783 -239.96589756 166.12304783 C-241.28589756 166.12304783 -242.60589756 166.12304783 -243.96589756 166.12304783 C-243.96589756 165.46304783 -243.96589756 164.80304783 -243.96589756 164.12304783 C-244.62589756 164.12304783 -245.28589756 164.12304783 -245.96589756 164.12304783 C-245.96589756 163.46304783 -245.96589756 162.80304783 -245.96589756 162.12304783 C-246.62589756 162.12304783 -247.28589756 162.12304783 -247.96589756 162.12304783 C-247.96589756 161.46304783 -247.96589756 160.80304783 -247.96589756 160.12304783 C-248.62589756 160.12304783 -249.28589756 160.12304783 -249.96589756 160.12304783 C-249.96589756 159.46304783 -249.96589756 158.80304783 -249.96589756 158.12304783 C-250.62589756 158.12304783 -251.28589756 158.12304783 -251.96589756 158.12304783 C-254.08953318 153.80835958 -254.26812115 149.84057896 -254.21589756 145.12304783 C-254.22363194 144.42437595 -254.23136631 143.72570408 -254.23933506 143.00586033 C-254.22397997 138.9367622 -253.76700096 135.78243252 -251.96589756 132.12304783 C-251.30589756 132.12304783 -250.64589756 132.12304783 -249.96589756 132.12304783 C-249.56371006 130.97836033 -249.56371006 130.97836033 -249.15339756 129.81054783 C-248.00794509 127.21820804 -247.20174575 125.82229245 -244.96589756 124.12304783 C-243.97589756 124.12304783 -242.98589756 124.12304783 -241.96589756 124.12304783 C-241.96589756 123.46304783 -241.96589756 122.80304783 -241.96589756 122.12304783 C-240.64589756 122.12304783 -239.32589756 122.12304783 -237.96589756 122.12304783 C-237.96589756 121.46304783 -237.96589756 120.80304783 -237.96589756 120.12304783 C-236.26433506 119.90648533 -236.26433506 119.90648533 -234.52839756 119.68554783 C-231.15812555 119.51133305 -231.15812555 119.51133305 -229.96589756 118.12304783 C-226.82149868 118.00293073 -223.69810482 117.94753929 -220.55256748 117.9335947 C-219.56398243 117.9253014 -218.57539738 117.91700809 -217.5568552 117.90846348 C-215.4020682 117.89101839 -213.24726175 117.87586392 -211.09244442 117.86268711 C-207.68451356 117.84172492 -204.27667991 117.81469539 -200.86880589 117.7860117 C-193.63037355 117.7261943 -186.39189616 117.67412172 -179.15339756 117.62304783 C-170.77856483 117.56386222 -162.40377953 117.50154134 -154.02903271 117.43116856 C-150.66768621 117.40456549 -147.3063351 117.38376468 -143.94494724 117.36316013 C-141.88576628 117.34655608 -139.82658745 117.32968414 -137.76741123 117.31250095 C-136.82958805 117.30831654 -135.89176487 117.30413212 -134.9255228 117.2998209 C-133.63207699 117.28730541 -133.63207699 117.28730541 -132.31250095 117.27453709 C-131.19170533 117.26680649 -131.19170533 117.26680649 -130.04826736 117.25891972 C-127.91441611 117.11968873 -126.01934926 116.70585283 -123.96589756 116.12304783 C-123.96589756 115.46304783 -123.96589756 114.80304783 -123.96589756 114.12304783 C-122.46980381 112.68554783 -122.46980381 112.68554783 -120.52839756 111.12304783 C-117.81401518 108.97779739 -117.81401518 108.97779739 -115.96589756 106.12304783 C-115.30589756 106.12304783 -114.64589756 106.12304783 -113.96589756 106.12304783 C-113.96589756 105.46304783 -113.96589756 104.80304783 -113.96589756 104.12304783 C-113.30589756 104.12304783 -112.64589756 104.12304783 -111.96589756 104.12304783 C-111.96589756 103.46304783 -111.96589756 102.80304783 -111.96589756 102.12304783 C-111.30589756 102.12304783 -110.64589756 102.12304783 -109.96589756 102.12304783 C-109.96589756 101.46304783 -109.96589756 100.80304783 -109.96589756 100.12304783 C-109.30589756 100.12304783 -108.64589756 100.12304783 -107.96589756 100.12304783 C-107.96589756 99.46304783 -107.96589756 98.80304783 -107.96589756 98.12304783 C-107.30589756 98.12304783 -106.64589756 98.12304783 -105.96589756 98.12304783 C-105.96589756 97.46304783 -105.96589756 96.80304783 -105.96589756 96.12304783 C-105.30589756 96.12304783 -104.64589756 96.12304783 -103.96589756 96.12304783 C-103.96589756 95.46304783 -103.96589756 94.80304783 -103.96589756 94.12304783 C-103.30589756 94.12304783 -102.64589756 94.12304783 -101.96589756 94.12304783 C-101.96589756 93.46304783 -101.96589756 92.80304783 -101.96589756 92.12304783 C-101.30589756 92.12304783 -100.64589756 92.12304783 -99.96589756 92.12304783 C-99.82152256 91.50429783 -99.67714756 90.88554783 -99.52839756 90.24804783 C-98.96589756 88.12304783 -98.96589756 88.12304783 -97.96589756 86.12304783 C-97.30589756 86.12304783 -96.64589756 86.12304783 -95.96589756 86.12304783 C-95.96589756 85.46304783 -95.96589756 84.80304783 -95.96589756 84.12304783 C-95.30589756 84.12304783 -94.64589756 84.12304783 -93.96589756 84.12304783 C-93.96589756 83.46304783 -93.96589756 82.80304783 -93.96589756 82.12304783 C-93.30589756 82.12304783 -92.64589756 82.12304783 -91.96589756 82.12304783 C-91.96589756 81.46304783 -91.96589756 80.80304783 -91.96589756 80.12304783 C-91.30589756 80.12304783 -90.64589756 80.12304783 -89.96589756 80.12304783 C-89.96589756 79.46304783 -89.96589756 78.80304783 -89.96589756 78.12304783 C-89.30589756 78.12304783 -88.64589756 78.12304783 -87.96589756 78.12304783 C-87.96589756 77.46304783 -87.96589756 76.80304783 -87.96589756 76.12304783 C-87.30589756 76.12304783 -86.64589756 76.12304783 -85.96589756 76.12304783 C-85.96589756 75.46304783 -85.96589756 74.80304783 -85.96589756 74.12304783 C-85.30589756 74.12304783 -84.64589756 74.12304783 -83.96589756 74.12304783 C-83.96589756 73.46304783 -83.96589756 72.80304783 -83.96589756 72.12304783 C-83.30589756 72.12304783 -82.64589756 72.12304783 -81.96589756 72.12304783 C-81.96589756 71.46304783 -81.96589756 70.80304783 -81.96589756 70.12304783 C-81.30589756 70.12304783 -80.64589756 70.12304783 -79.96589756 70.12304783 C-79.96589756 69.46304783 -79.96589756 68.80304783 -79.96589756 68.12304783 C-79.30589756 68.12304783 -78.64589756 68.12304783 -77.96589756 68.12304783 C-77.96589756 67.46304783 -77.96589756 66.80304783 -77.96589756 66.12304783 C-77.30589756 66.12304783 -76.64589756 66.12304783 -75.96589756 66.12304783 C-75.96589756 65.46304783 -75.96589756 64.80304783 -75.96589756 64.12304783 C-75.30589756 64.12304783 -74.64589756 64.12304783 -73.96589756 64.12304783 C-73.96589756 63.46304783 -73.96589756 62.80304783 -73.96589756 62.12304783 C-73.30589756 62.12304783 -72.64589756 62.12304783 -71.96589756 62.12304783 C-71.96589756 61.46304783 -71.96589756 60.80304783 -71.96589756 60.12304783 C-71.30589756 60.12304783 -70.64589756 60.12304783 -69.96589756 60.12304783 C-69.59464756 59.2954697 -69.59464756 59.2954697 -69.21589756 58.45117283 C-67.72355282 55.67168075 -65.92917233 53.34157713 -63.96589756 50.87304783 C-63.26464756 49.98101658 -62.56339756 49.08898533 -61.84089756 48.16992283 C-60.91277256 47.1567197 -60.91277256 47.1567197 -59.96589756 46.12304783 C-59.30589756 46.12304783 -58.64589756 46.12304783 -57.96589756 46.12304783 C-57.96589756 45.46304783 -57.96589756 44.80304783 -57.96589756 44.12304783 C-57.30589756 44.12304783 -56.64589756 44.12304783 -55.96589756 44.12304783 C-55.96589756 43.46304783 -55.96589756 42.80304783 -55.96589756 42.12304783 C-55.30589756 42.12304783 -54.64589756 42.12304783 -53.96589756 42.12304783 C-53.96589756 41.46304783 -53.96589756 40.80304783 -53.96589756 40.12304783 C-53.30589756 40.12304783 -52.64589756 40.12304783 -51.96589756 40.12304783 C-51.96589756 39.46304783 -51.96589756 38.80304783 -51.96589756 38.12304783 C-51.30589756 38.12304783 -50.64589756 38.12304783 -49.96589756 38.12304783 C-49.96589756 37.46304783 -49.96589756 36.80304783 -49.96589756 36.12304783 C-49.30589756 36.12304783 -48.64589756 36.12304783 -47.96589756 36.12304783 C-47.96589756 35.46304783 -47.96589756 34.80304783 -47.96589756 34.12304783 C-47.30589756 34.12304783 -46.64589756 34.12304783 -45.96589756 34.12304783 C-45.96589756 33.46304783 -45.96589756 32.80304783 -45.96589756 32.12304783 C-45.30589756 32.12304783 -44.64589756 32.12304783 -43.96589756 32.12304783 C-43.96589756 31.46304783 -43.96589756 30.80304783 -43.96589756 30.12304783 C-43.30589756 30.12304783 -42.64589756 30.12304783 -41.96589756 30.12304783 C-41.96589756 29.46304783 -41.96589756 28.80304783 -41.96589756 28.12304783 C-41.30589756 28.12304783 -40.64589756 28.12304783 -39.96589756 28.12304783 C-39.96589756 27.46304783 -39.96589756 26.80304783 -39.96589756 26.12304783 C-39.30589756 26.12304783 -38.64589756 26.12304783 -37.96589756 26.12304783 C-37.96589756 25.46304783 -37.96589756 24.80304783 -37.96589756 24.12304783 C-37.30589756 24.12304783 -36.64589756 24.12304783 -35.96589756 24.12304783 C-35.96589756 23.46304783 -35.96589756 22.80304783 -35.96589756 22.12304783 C-35.30589756 22.12304783 -34.64589756 22.12304783 -33.96589756 22.12304783 C-33.88339756 21.54554783 -33.80089756 20.96804783 -33.71589756 20.37304783 C-32.72733321 17.40735477 -31.35769403 16.11621156 -28.96589756 14.12304783 C-26.21589756 12.87304783 -26.21589756 12.87304783 -23.96589756 12.12304783 C-23.96589756 11.46304783 -23.96589756 10.80304783 -23.96589756 10.12304783 C-23.30589756 10.12304783 -22.64589756 10.12304783 -21.96589756 10.12304783 C-21.96589756 9.46304783 -21.96589756 8.80304783 -21.96589756 8.12304783 C-20.64589756 8.12304783 -19.32589756 8.12304783 -17.96589756 8.12304783 C-17.96589756 7.46304783 -17.96589756 6.80304783 -17.96589756 6.12304783 C-16.64589756 6.12304783 -15.32589756 6.12304783 -13.96589756 6.12304783 C-13.96589756 5.46304783 -13.96589756 4.80304783 -13.96589756 4.12304783 C-12.64589756 4.12304783 -11.32589756 4.12304783 -9.96589756 4.12304783 C-9.96589756 3.46304783 -9.96589756 2.80304783 -9.96589756 2.12304783 C-8.26433506 1.90648533 -8.26433506 1.90648533 -6.52839756 1.68554783 C-3.54382135 1.21429895 -2.64342295 0.16545494 0 0 Z " fill="#029F9F" transform="translate(258.96589756011963,114.87695217132568)"/>
<path d="M0 0 C1.4370809 -0.05422947 2.87475462 -0.09289723 4.3125 -0.125 C5.11300781 -0.14820313 5.91351563 -0.17140625 6.73828125 -0.1953125 C9 0 9 0 12 2 C12 2.66 12 3.32 12 4 C12.66 4 13.32 4 14 4 C14 4.66 14 5.32 14 6 C14.66 6 15.32 6 16 6 C16 6.66 16 7.32 16 8 C16.66 8 17.32 8 18 8 C18.37125 8.680625 18.7425 9.36125 19.125 10.0625 C22.33825509 15.09659964 27.0627257 18.7084838 32 22 C32 22.66 32 23.32 32 24 C32.56962967 23.99777939 33.13925934 23.99555878 33.72615051 23.99327087 C39.64693577 23.97117275 45.56770934 23.95607441 51.48852539 23.94506836 C53.69914221 23.940035 55.90975569 23.93320783 58.12036133 23.92456055 C61.295093 23.91245141 64.46978072 23.90676175 67.64453125 23.90234375 C69.13059624 23.89460182 69.13059624 23.89460182 70.64668274 23.88670349 C71.56741074 23.88662796 72.48813873 23.88655243 73.43676758 23.88647461 C74.65255241 23.88314369 74.65255241 23.88314369 75.89289856 23.87974548 C78 24 78 24 81 25 C82.83873473 25.09649046 84.68071915 25.13541699 86.52197266 25.1418457 C87.65390045 25.14888016 88.78582825 25.15591461 89.95205688 25.16316223 C91.17701874 25.16732651 92.40198059 25.17149078 93.6640625 25.17578125 C96.25651847 25.19898674 98.84896641 25.22310437 101.44140625 25.24804688 C105.52945924 25.28435112 109.61736385 25.31415818 113.70556641 25.32592773 C117.65034342 25.33802666 121.59451013 25.38170077 125.5390625 25.42578125 C126.75187897 25.42387283 127.96469543 25.42196442 129.21426392 25.41999817 C136.3549103 25.52231984 141.76064711 26.43368239 148 30 C148 30.66 148 31.32 148 32 C148.66 32 149.32 32 150 32 C150 32.66 150 33.32 150 34 C151.32 34.66 152.64 35.32 154 36 C154 36.66 154 37.32 154 38 C154.66 38 155.32 38 156 38 C158.84532517 46.18030985 158.84532517 53.81969015 156 62 C155.34 62 154.68 62 154 62 C154 63.32 154 64.64 154 66 C153.34 66 152.68 66 152 66 C152 66.66 152 67.32 152 68 C148.32547562 70.8394052 146.73113419 72 142 72 C142 72.66 142 73.32 142 74 C141.36191406 74.06058594 140.72382813 74.12117188 140.06640625 74.18359375 C139.24011719 74.26738281 138.41382813 74.35117187 137.5625 74.4375 C136.32693359 74.55931641 136.32693359 74.55931641 135.06640625 74.68359375 C133.01337975 74.78930815 133.01337975 74.78930815 132 76 C130.58554008 76.09766396 129.16624054 76.12631677 127.74841309 76.12698364 C126.83134079 76.12980347 125.91426849 76.13262329 124.96940613 76.13552856 C123.95534195 76.13350433 122.94127777 76.1314801 121.89648438 76.12939453 C120.83480545 76.13114685 119.77312653 76.13289917 118.67927551 76.13470459 C115.15075065 76.13912548 111.62227543 76.13618428 108.09375 76.1328125 C105.65376781 76.13348547 103.21378568 76.13445544 100.77380371 76.13571167 C95.65241866 76.13718897 90.53105101 76.13503307 85.40966797 76.13037109 C78.82837285 76.1246738 72.24711851 76.12795263 65.66582489 76.13394356 C60.62513926 76.13754832 55.58446338 76.13641098 50.54377747 76.13381577 C48.11635839 76.13314626 45.68893844 76.13397573 43.26152039 76.13629532 C39.87549477 76.13882045 36.48953621 76.13498322 33.10351562 76.12939453 C32.08945145 76.13141876 31.07538727 76.13344299 30.03059387 76.13552856 C28.65498543 76.13129883 28.65498543 76.13129883 27.25158691 76.12698364 C26.45000404 76.12660662 25.64842117 76.12622959 24.82254791 76.12584114 C23 76 23 76 22 75 C20.65252916 74.76924918 19.29622435 74.58846937 17.9375 74.4375 C16.638125 74.293125 15.33875 74.14875 14 74 C14 73.34 14 72.68 14 72 C12.02 72 10.04 72 8 72 C8 71.34 8 70.68 8 70 C6.68 70 5.36 70 4 70 C4 69.34 4 68.68 4 68 C3.38125 67.855625 2.7625 67.71125 2.125 67.5625 C0 67 0 67 -2 66 C-2 65.34 -2 64.68 -2 64 C-2.66 64 -3.32 64 -4 64 C-4 63.34 -4 62.68 -4 62 C-4.57234375 61.92652344 -5.1446875 61.85304688 -5.734375 61.77734375 C-8.80936108 60.72230542 -10.13762261 59.00738123 -12.25 56.5625 C-12.95640625 55.75941406 -13.6628125 54.95632813 -14.390625 54.12890625 C-16 52 -16 52 -16 50 C-16.66 50 -17.32 50 -18 50 C-18 49.34 -18 48.68 -18 48 C-18.66 48 -19.32 48 -20 48 C-20 47.34 -20 46.68 -20 46 C-20.66 46 -21.32 46 -22 46 C-22 45.34 -22 44.68 -22 44 C-22.66 44 -23.32 44 -24 44 C-24 43.34 -24 42.68 -24 42 C-24.66 42 -25.32 42 -26 42 C-26 41.34 -26 40.68 -26 40 C-26.66 40 -27.32 40 -28 40 C-30.1042502 36.05453087 -30.1042502 36.05453087 -30 33 C-27.80388486 28.94479729 -25.14557822 25.37113325 -22 22 C-21.34 22 -20.68 22 -20 22 C-20 21.34 -20 20.68 -20 20 C-19.34 20 -18.68 20 -18 20 C-18 19.34 -18 18.68 -18 18 C-17.34 18 -16.68 18 -16 18 C-16 17.34 -16 16.68 -16 16 C-15.34 16 -14.68 16 -14 16 C-14 15.34 -14 14.68 -14 14 C-13.34 14 -12.68 14 -12 14 C-12 13.34 -12 12.68 -12 12 C-11.34 12 -10.68 12 -10 12 C-10 11.34 -10 10.68 -10 10 C-9.34 10 -8.68 10 -8 10 C-8 9.34 -8 8.68 -8 8 C-7.34 8 -6.68 8 -6 8 C-6 7.34 -6 6.68 -6 6 C-5.34 6 -4.68 6 -4 6 C-4 5.34 -4 4.68 -4 4 C-3.34 4 -2.68 4 -2 4 C-2 3.34 -2 2.68 -2 2 C-1.34 2 -0.68 2 0 2 C0 1.34 0 0.68 0 0 Z " fill="#69C1C0" transform="translate(237,209)"/>
<path d="M0 0 C2.88393325 0.11101513 5.74556872 0.17442896 8.62988281 0.18945312 C9.91603989 0.20189308 9.91603989 0.20189308 11.22817993 0.21458435 C13.08387695 0.23193904 14.93959532 0.24711822 16.79532623 0.26036072 C19.72808994 0.28142935 22.66074542 0.30844519 25.59344482 0.33703613 C32.87201539 0.40678 40.15066232 0.46639629 47.42932129 0.52606201 C53.58886196 0.57690364 59.74834225 0.63167667 65.90779877 0.69187927 C68.80450167 0.71853264 71.70121001 0.73929344 74.59796143 0.7598877 C76.36120884 0.77648093 78.12445367 0.7933519 79.88769531 0.81054688 C81.10481705 0.8168235 81.10481705 0.8168235 82.3465271 0.82322693 C87.88614695 0.88614695 87.88614695 0.88614695 89 2 C90.299375 2.103125 91.59875 2.20625 92.9375 2.3125 C99.53517766 2.96698962 105.49998423 5.33332282 111 9 C111 9.66 111 10.32 111 11 C111.61875 11.144375 112.2375 11.28875 112.875 11.4375 C115 12 115 12 117 13 C117 13.66 117 14.32 117 15 C117.66 15 118.32 15 119 15 C119 15.66 119 16.32 119 17 C119.66 17 120.32 17 121 17 C121 17.66 121 18.32 121 19 C121.66 19 122.32 19 123 19 C123 19.66 123 20.32 123 21 C123.66 21 124.32 21 125 21 C125 21.66 125 22.32 125 23 C125.66 23 126.32 23 127 23 C127 23.66 127 24.32 127 25 C127.66 25 128.32 25 129 25 C133 30.41176471 133 30.41176471 133 33 C133.66 33 134.32 33 135 33 C135 33.66 135 34.32 135 35 C135.66 35 136.32 35 137 35 C137 35.66 137 36.32 137 37 C137.66 37 138.32 37 139 37 C141.4294516 40.6441774 141.16179575 42.71241272 141 47 C140.34 47 139.68 47 139 47 C138.855625 47.61875 138.71125 48.2375 138.5625 48.875 C138 51 138 51 137 53 C136.34 53 135.68 53 135 53 C135 53.66 135 54.32 135 55 C134.34 55 133.68 55 133 55 C133 55.66 133 56.32 133 57 C132.34 57 131.68 57 131 57 C131 57.66 131 58.32 131 59 C130.34 59 129.68 59 129 59 C129 59.66 129 60.32 129 61 C128.34 61 127.68 61 127 61 C127 61.66 127 62.32 127 63 C126.34 63 125.68 63 125 63 C125 63.66 125 64.32 125 65 C124.34 65 123.68 65 123 65 C123 65.66 123 66.32 123 67 C122.34 67 121.68 67 121 67 C121 67.66 121 68.32 121 69 C120.34 69 119.68 69 119 69 C119 69.66 119 70.32 119 71 C118.34 71 117.68 71 117 71 C117 71.66 117 72.32 117 73 C116.34 73 115.68 73 115 73 C115 73.66 115 74.32 115 75 C114.34 75 113.68 75 113 75 C113 75.66 113 76.32 113 77 C104.42857143 77.28571429 104.42857143 77.28571429 101 75 C101 74.34 101 73.68 101 73 C100.34 73 99.68 73 99 73 C97.4921875 71.3203125 97.4921875 71.3203125 95.875 69.125 C95.33617187 68.40570313 94.79734375 67.68640625 94.2421875 66.9453125 C93 65 93 65 93 63 C92.34 63 91.68 63 91 63 C91 62.34 91 61.68 91 61 C90.34 61 89.68 61 89 61 C89 60.34 89 59.68 89 59 C88.34 59 87.68 59 87 59 C87 58.34 87 57.68 87 57 C86.34 57 85.68 57 85 57 C85 56.34 85 55.68 85 55 C83.68 55 82.36 55 81 55 C81 54.34 81 53.68 81 53 C80.030625 53.020625 79.06125 53.04125 78.0625 53.0625 C75 53 75 53 74 52 C70.84592602 51.89585942 67.7130266 51.85639295 64.55834961 51.8581543 C63.56643616 51.85467987 62.57452271 51.85120544 61.55255127 51.84762573 C59.38957726 51.84025232 57.2265956 51.83491543 55.06361198 51.83133507 C51.63776851 51.82418834 48.21206983 51.80853349 44.78627014 51.78999329 C35.04251136 51.73745192 25.2988289 51.68957414 15.55493164 51.67407227 C9.60139593 51.66397792 3.6482197 51.63460997 -2.30517387 51.59275246 C-4.57326981 51.58045211 -6.84141656 51.57531943 -9.10954475 51.57755089 C-12.29094728 51.57990963 -15.47132418 51.55769052 -18.65258789 51.5300293 C-20.05177711 51.53993141 -20.05177711 51.53993141 -21.47923279 51.55003357 C-27.69031691 51.46165564 -31.63301292 50.1480108 -37 47 C-37 46.34 -37 45.68 -37 45 C-37.66 45 -38.32 45 -39 45 C-39 44.34 -39 43.68 -39 43 C-39.66 43 -40.32 43 -41 43 C-41 42.34 -41 41.68 -41 41 C-41.66 41 -42.32 41 -43 41 C-43 39.68 -43 38.36 -43 37 C-43.66 37 -44.32 37 -45 37 C-45 31.06 -45 25.12 -45 19 C-44.34 19 -43.68 19 -43 19 C-43 17.68 -43 16.36 -43 15 C-41.68 15 -40.36 15 -39 15 C-39 14.34 -39 13.68 -39 13 C-38.34 13 -37.68 13 -37 13 C-37 12.34 -37 11.68 -37 11 C-36.34 11 -35.68 11 -35 11 C-35 10.34 -35 9.68 -35 9 C-34.34 9 -33.68 9 -33 9 C-33 8.34 -33 7.68 -33 7 C-32.34 7 -31.68 7 -31 7 C-31 6.34 -31 5.68 -31 5 C-30.34 5 -29.68 5 -29 5 C-29 4.34 -29 3.68 -29 3 C-28.34 3 -27.68 3 -27 3 C-27 2.34 -27 1.68 -27 1 C-26.44014404 0.97494385 -25.88028809 0.9498877 -25.3034668 0.92407227 C-22.76458695 0.80796255 -20.22606447 0.6853042 -17.6875 0.5625 C-16.80642578 0.52318359 -15.92535156 0.48386719 -15.01757812 0.44335938 C-14.17001953 0.40146484 -13.32246094 0.35957031 -12.44921875 0.31640625 C-11.66893311 0.27974854 -10.88864746 0.24309082 -10.0847168 0.20532227 C-2.62742836 -0.52914074 -2.62742836 -0.52914074 0 0 Z " fill="#66BFBD" transform="translate(52,114)"/>
<path d="M0 0 C0.66 0 1.32 0 2 0 C1.47470631 4.1088041 0.33192009 6.25519841 -2.4375 9.3125 C-3.05496094 10.00988281 -3.67242187 10.70726562 -4.30859375 11.42578125 C-6 13 -6 13 -8 13 C-8 13.66 -8 14.32 -8 15 C-8.66 15 -9.32 15 -10 15 C-10 15.66 -10 16.32 -10 17 C-10.66 17 -11.32 17 -12 17 C-12 17.66 -12 18.32 -12 19 C-12.66 19 -13.32 19 -14 19 C-14 19.66 -14 20.32 -14 21 C-14.66 21 -15.32 21 -16 21 C-16 21.66 -16 22.32 -16 23 C-16.66 23 -17.32 23 -18 23 C-18 23.66 -18 24.32 -18 25 C-18.66 25 -19.32 25 -20 25 C-20 25.66 -20 26.32 -20 27 C-20.66 27 -21.32 27 -22 27 C-22 27.66 -22 28.32 -22 29 C-22.66 29 -23.32 29 -24 29 C-24 29.66 -24 30.32 -24 31 C-24.66 31 -25.32 31 -26 31 C-26.66 32.32 -27.32 33.64 -28 35 C-28.66 35 -29.32 35 -30 35 C-30 35.66 -30 36.32 -30 37 C-30.66 37 -31.32 37 -32 37 C-32 37.66 -32 38.32 -32 39 C-32.66 39 -33.32 39 -34 39 C-34 39.66 -34 40.32 -34 41 C-34.66 41 -35.32 41 -36 41 C-36 41.66 -36 42.32 -36 43 C-36.66 43 -37.32 43 -38 43 C-38 43.66 -38 44.32 -38 45 C-39.32 45 -40.64 45 -42 45 C-42 45.66 -42 46.32 -42 47 C-43.32 47 -44.64 47 -46 47 C-46 47.66 -46 48.32 -46 49 C-47.32 49 -48.64 49 -50 49 C-50 49.66 -50 50.32 -50 51 C-52.64 51 -55.28 51 -58 51 C-58 51.66 -58 52.32 -58 53 C-97.93 53 -137.86 53 -179 53 C-179.495 51.515 -179.495 51.515 -180 50 C-180.99 49.67 -181.98 49.34 -183 49 C-183 48.67 -183 48.34 -183 48 C-178.92325362 47.1467275 -176.04075573 47.12632308 -172 48 C-170.515 47.505 -170.515 47.505 -169 47 C-167.0939389 46.90625375 -165.18473171 46.87206988 -163.27636719 46.87060547 C-162.0953241 46.86745331 -160.91428101 46.86430115 -159.69744873 46.86105347 C-157.76666473 46.86408981 -157.76666473 46.86408981 -155.796875 46.8671875 C-154.44053124 46.86651186 -153.08418759 46.86553969 -151.72784424 46.86428833 C-148.86282211 46.86280957 -145.99783102 46.8649623 -143.1328125 46.86962891 C-139.56215535 46.87517679 -135.99157542 46.87207741 -132.42092133 46.86614609 C-128.92123203 46.86135535 -125.42156401 46.86283361 -121.921875 46.8671875 C-121.22615891 46.86799065 -120.53044281 46.86879379 -119.81364441 46.86962128 C-111.96647414 46.88575745 -104.13263811 46.99734659 -96.29101562 47.30175781 C-95.58522495 47.32851908 -94.87943428 47.35528034 -94.15225601 47.38285255 C-90.79912691 47.51260498 -87.4483836 47.65814903 -84.09686279 47.8263855 C-77.27184815 48.11754918 -71.60118212 47.74035388 -65 46 C-61.98828125 46.26953125 -61.98828125 46.26953125 -59.3125 46.8125 C-51.40077892 47.71756835 -45.54694387 44.14959425 -39 40 C-36.52377791 37.91455351 -36.52377791 37.91455351 -35.5625 34.9375 C-35.376875 34.298125 -35.19125 33.65875 -35 33 C-34.360625 32.690625 -33.72125 32.38125 -33.0625 32.0625 C-30.73302326 31.15027284 -30.73302326 31.15027284 -30 28.4375 C-29.67 27.633125 -29.34 26.82875 -29 26 C-26.875 25.1875 -26.875 25.1875 -25 25 C-25 24.34 -25 23.68 -25 23 C-24.34 23 -23.68 23 -23 23 C-22.7525 22.38125 -22.505 21.7625 -22.25 21.125 C-20.79371361 18.64931313 -19.62187494 18.04874998 -17 17 C-17 16.34 -17 15.68 -17 15 C-16.34 15 -15.68 15 -15 15 C-15 14.34 -15 13.68 -15 13 C-14.4121875 12.90203125 -13.824375 12.8040625 -13.21875 12.703125 C-10.55954586 11.86041946 -9.41836747 10.755566 -7.5 8.75 C-6.59701172 7.81220703 -6.59701172 7.81220703 -5.67578125 6.85546875 C-4.28269416 5.31300636 -2.97313442 3.69560318 -1.6875 2.0625 C-1.130625 1.381875 -0.57375 0.70125 0 0 Z " fill="#1A929E" transform="translate(203,232)"/>
<path d="M0 0 C1.98 0.99 1.98 0.99 4 2 C3.58113525 2.39791748 3.16227051 2.79583496 2.73071289 3.20581055 C0.83077158 5.02237712 -1.0533231 6.85459322 -2.9375 8.6875 C-3.59685547 9.31333984 -4.25621094 9.93917969 -4.93554688 10.58398438 C-9.55406228 14.95822223 -9.55406228 14.95822223 -11 21 C-11.99 21 -12.98 21 -14 21 C-14 22.32 -14 23.64 -14 25 C-15.65 25 -17.3 25 -19 25 C-18.67 26.32 -18.34 27.64 -18 29 C-19.11375 29.6496875 -19.11375 29.6496875 -20.25 30.3125 C-22.96668182 31.91237032 -22.96668182 31.91237032 -25.1875 33.6875 C-27 35 -27 35 -29 35 C-29.37125 36.36125 -29.37125 36.36125 -29.75 37.75 C-31.82211499 43.13749896 -35.19058628 45.15807371 -40 48 C-42.09936089 49.53710431 -44.16757036 51.10968123 -46.23046875 52.6953125 C-48.9997582 54.73712856 -50.652682 55.12551793 -54.0388031 55.13130188 C-55.30644753 55.13731415 -55.30644753 55.13731415 -56.59970093 55.14344788 C-57.52900421 55.14291916 -58.4583075 55.14239044 -59.41577148 55.1418457 C-60.88200203 55.14705734 -60.88200203 55.14705734 -62.37785339 55.15237427 C-64.5069719 55.15974056 -66.63609813 55.16508127 -68.76522636 55.16866493 C-72.14156701 55.17582466 -75.51776183 55.19149034 -78.89405823 55.21000671 C-88.49632696 55.26248003 -98.09851891 55.31039797 -107.70092773 55.32592773 C-113.57134134 55.33604499 -119.44139261 55.36547155 -125.31166267 55.40724754 C-127.54378574 55.41951633 -129.77596011 55.42468638 -132.00811577 55.42244911 C-149.66698362 55.38322175 -149.66698362 55.38322175 -165.9375 61.6875 C-170.92813082 67.28305576 -172.38252029 73.71373944 -173 81 C-173.52554298 83.43063626 -174.21095044 85.63285132 -175 88 C-177.01899871 85.98100129 -176.18506846 82.01222841 -176.1875 79.25 C-176.19974609 78.53328125 -176.21199219 77.8165625 -176.22460938 77.078125 C-176.2360447 72.93091292 -175.8557613 69.72619265 -174 66 C-173.34 66 -172.68 66 -172 66 C-171.5978125 64.8553125 -171.5978125 64.8553125 -171.1875 63.6875 C-170.04204753 61.09516021 -169.23584819 59.69924463 -167 58 C-166.01 58 -165.02 58 -164 58 C-164 57.34 -164 56.68 -164 56 C-162.68 56 -161.36 56 -160 56 C-160 55.34 -160 54.68 -160 54 C-158.865625 53.855625 -157.73125 53.71125 -156.5625 53.5625 C-153.19222799 53.38828522 -153.19222799 53.38828522 -152 52 C-148.85560112 51.87988291 -145.73220726 51.82449147 -142.58666992 51.81054688 C-141.10379234 51.79810692 -141.10379234 51.79810692 -139.59095764 51.78541565 C-137.43617064 51.76797056 -135.28136419 51.7528161 -133.12654686 51.73963928 C-129.718616 51.71867709 -126.31078235 51.69164756 -122.90290833 51.66296387 C-115.66447599 51.60314647 -108.4259986 51.55107389 -101.1875 51.5 C-92.81266727 51.44081439 -84.43788197 51.37849351 -76.06313515 51.30812073 C-72.70178865 51.28151766 -69.34043754 51.26071685 -65.97904968 51.2401123 C-63.91986872 51.22350825 -61.86068989 51.20663631 -59.80151367 51.18945312 C-58.3947789 51.1831765 -58.3947789 51.1831765 -56.95962524 51.17677307 C-56.09732803 51.16842941 -55.23503082 51.16008575 -54.34660339 51.15148926 C-53.22580777 51.14375866 -53.22580777 51.14375866 -52.0823698 51.13587189 C-49.94851855 50.9966409 -48.0534517 50.582805 -46 50 C-46 49.34 -46 48.68 -46 48 C-44.50390625 46.5625 -44.50390625 46.5625 -42.5625 45 C-39.84811762 42.85474956 -39.84811762 42.85474956 -38 40 C-37.34 40 -36.68 40 -36 40 C-36 39.34 -36 38.68 -36 38 C-35.34 38 -34.68 38 -34 38 C-34 37.34 -34 36.68 -34 36 C-33.34 36 -32.68 36 -32 36 C-32 35.34 -32 34.68 -32 34 C-31.34 34 -30.68 34 -30 34 C-30 33.34 -30 32.68 -30 32 C-29.34 32 -28.68 32 -28 32 C-28 31.34 -28 30.68 -28 30 C-27.34 30 -26.68 30 -26 30 C-26 29.34 -26 28.68 -26 28 C-25.34 28 -24.68 28 -24 28 C-24 27.34 -24 26.68 -24 26 C-23.34 26 -22.68 26 -22 26 C-21.7834375 25.071875 -21.7834375 25.071875 -21.5625 24.125 C-21 22 -21 22 -20 20 C-19.34 20 -18.68 20 -18 20 C-18 19.34 -18 18.68 -18 18 C-17.34 18 -16.68 18 -16 18 C-16 17.34 -16 16.68 -16 16 C-15.34 16 -14.68 16 -14 16 C-14 15.34 -14 14.68 -14 14 C-13.34 14 -12.68 14 -12 14 C-12 13.34 -12 12.68 -12 12 C-11.34 12 -10.68 12 -10 12 C-10 11.34 -10 10.68 -10 10 C-9.34 10 -8.68 10 -8 10 C-8 9.34 -8 8.68 -8 8 C-7.34 8 -6.68 8 -6 8 C-6 7.34 -6 6.68 -6 6 C-5.34 6 -4.68 6 -4 6 C-4 5.34 -4 4.68 -4 4 C-3.34 4 -2.68 4 -2 4 C-2 3.34 -2 2.68 -2 2 C-1.34 2 -0.68 2 0 2 C0 1.34 0 0.68 0 0 Z " fill="#6A6E7C" transform="translate(181,181)"/>
<path d="M0 0 C0.86925078 0.00092179 1.73850157 0.00184359 2.63409328 0.00279331 C3.62833813 0.00141865 4.62258297 0.00004398 5.64695644 -0.00137234 C6.74674831 0.00222294 7.84654018 0.00581821 8.97965908 0.00952244 C10.13072643 0.00937641 11.28179379 0.00923038 12.46774197 0.00907993 C16.29326635 0.00977965 20.11874275 0.0175748 23.94425869 0.02539158 C26.58841837 0.02725555 29.2325784 0.02867955 31.87673855 0.0296793 C38.13825661 0.03279234 44.3997573 0.04100535 50.6612677 0.05102879 C57.78811781 0.06219078 64.91496874 0.06770059 72.04182541 0.07272422 C86.70592674 0.08318799 101.37001435 0.10078689 116.03410244 0.12304783 C116.03410244 0.78304783 116.03410244 1.44304783 116.03410244 2.12304783 C117.05503994 1.99929783 117.05503994 1.99929783 118.09660244 1.87304783 C122.20285909 2.22251648 124.55732139 3.94153815 128.03410244 6.12304783 C128.03410244 6.78304783 128.03410244 7.44304783 128.03410244 8.12304783 C128.69410244 8.12304783 129.35410244 8.12304783 130.03410244 8.12304783 C130.03410244 8.78304783 130.03410244 9.44304783 130.03410244 10.12304783 C130.69410244 10.12304783 131.35410244 10.12304783 132.03410244 10.12304783 C136.02247762 17.17392539 136.52228085 23.10878552 136.03410244 31.12304783 C135.04410244 31.45304783 134.05410244 31.78304783 133.03410244 32.12304783 C133.01347744 32.80367283 132.99285244 33.48429783 132.97160244 34.18554783 C131.56522348 38.5922019 128.40315174 41.07067157 125.03410244 44.12304783 C124.37410244 43.79304783 123.71410244 43.46304783 123.03410244 43.12304783 C123.51621181 42.6151572 123.99832119 42.10726658 124.49503994 41.58398533 C130.29707991 35.26094585 132.59959642 30.31861924 132.41691494 21.65429783 C131.60063142 16.25683127 128.48616385 12.57510924 124.72160244 8.81054783 C117.37919525 4.20019913 110.96169086 3.69259112 102.49333096 3.76660252 C101.36235485 3.76455814 100.23137875 3.76251377 99.06613064 3.76040745 C95.34825597 3.75741234 91.63083023 3.77583293 87.91300869 3.79492283 C85.32609066 3.79798162 82.73917098 3.79985683 80.15225124 3.8005991 C74.74308913 3.80519352 69.33408567 3.81919833 63.92497158 3.84179783 C56.97506566 3.87077508 50.0252619 3.88103239 43.07530212 3.88547993 C37.74038456 3.88902604 32.40548996 3.89943295 27.0705843 3.91135502 C24.50640397 3.91706867 21.94222133 3.92182373 19.37803745 3.92562199 C15.80835397 3.93245639 12.23876561 3.94607267 8.66911221 3.96191502 C7.60059017 3.96303288 6.53206814 3.96415073 5.43116665 3.96530247 C4.46531139 3.97101261 3.49945614 3.97672276 2.50433254 3.98260593 C1.23816522 3.98706793 1.23816522 3.98706793 -0.05358124 3.99162006 C-1.97514486 3.91330855 -1.97514486 3.91330855 -2.96589756 5.12304783 C-4.9654812 5.16385566 -6.9663501 5.16559139 -8.96589756 5.12304783 C-7.57272879 2.33671029 -5.8060924 2.18812089 -2.96589756 1.12304783 C-1.96589756 0.12304783 -1.96589756 0.12304783 0 0 Z " fill="#527976" transform="translate(258.96589756011963,114.87695217132568)"/>
<path d="M0 0 C0.70313324 -0.00058411 1.40626648 -0.00116821 2.13070679 -0.00177002 C4.4361244 0.0009988 6.74022072 0.03203066 9.04541016 0.06347656 C10.65108535 0.07094331 12.25676969 0.07663419 13.86245728 0.08062744 C18.07453881 0.09584984 22.28606259 0.13510166 26.4979248 0.17944336 C30.80143694 0.22046981 35.10503979 0.23865414 39.40869141 0.25878906 C47.8425402 0.30159986 56.27593691 0.36980921 64.70947266 0.45410156 C65.03947266 1.11410156 65.36947266 1.77410156 65.70947266 2.45410156 C61.13969184 3.17671226 56.72805578 3.59132594 52.10327148 3.64355469 C50.20143852 3.66863098 50.20143852 3.66863098 48.26118469 3.69421387 C47.59389154 3.70089584 46.9265984 3.70757782 46.23908424 3.71446228 C44.13283981 3.73569086 42.02673658 3.76269098 39.920578 3.7911377 C34.69515151 3.86056461 29.46962377 3.92037666 24.24407959 3.98016357 C19.81467593 4.03117467 15.38535194 4.08599749 10.95606041 4.14598083 C8.88437163 4.17246337 6.81267479 4.19332492 4.74092102 4.21398926 C2.85327278 4.23906555 2.85327278 4.23906555 0.92749023 4.26464844 C-0.73294563 4.28344055 -0.73294563 4.28344055 -2.42692566 4.3026123 C-4.88369562 4.43257949 -6.94673198 4.74405827 -9.29052734 5.45410156 C-9.29052734 6.11410156 -9.29052734 6.77410156 -9.29052734 7.45410156 C-11.16552734 9.57910156 -11.16552734 9.57910156 -13.29052734 11.45410156 C-13.95052734 11.45410156 -14.61052734 11.45410156 -15.29052734 11.45410156 C-15.29052734 12.11410156 -15.29052734 12.77410156 -15.29052734 13.45410156 C-15.95052734 13.45410156 -16.61052734 13.45410156 -17.29052734 13.45410156 C-17.29052734 14.11410156 -17.29052734 14.77410156 -17.29052734 15.45410156 C-17.95052734 15.45410156 -18.61052734 15.45410156 -19.29052734 15.45410156 C-19.29052734 16.11410156 -19.29052734 16.77410156 -19.29052734 17.45410156 C-19.95052734 17.45410156 -20.61052734 17.45410156 -21.29052734 17.45410156 C-21.29052734 18.11410156 -21.29052734 18.77410156 -21.29052734 19.45410156 C-21.95052734 19.45410156 -22.61052734 19.45410156 -23.29052734 19.45410156 C-23.29052734 20.11410156 -23.29052734 20.77410156 -23.29052734 21.45410156 C-23.95052734 21.45410156 -24.61052734 21.45410156 -25.29052734 21.45410156 C-25.29052734 22.11410156 -25.29052734 22.77410156 -25.29052734 23.45410156 C-25.95052734 23.45410156 -26.61052734 23.45410156 -27.29052734 23.45410156 C-27.29052734 24.11410156 -27.29052734 24.77410156 -27.29052734 25.45410156 C-27.95052734 25.45410156 -28.61052734 25.45410156 -29.29052734 25.45410156 C-29.29052734 26.11410156 -29.29052734 26.77410156 -29.29052734 27.45410156 C-29.95052734 27.45410156 -30.61052734 27.45410156 -31.29052734 27.45410156 C-31.29052734 28.11410156 -31.29052734 28.77410156 -31.29052734 29.45410156 C-31.95052734 29.45410156 -32.61052734 29.45410156 -33.29052734 29.45410156 C-33.29052734 30.11410156 -33.29052734 30.77410156 -33.29052734 31.45410156 C-33.95052734 31.45410156 -34.61052734 31.45410156 -35.29052734 31.45410156 C-35.29052734 32.11410156 -35.29052734 32.77410156 -35.29052734 33.45410156 C-35.95052734 33.45410156 -36.61052734 33.45410156 -37.29052734 33.45410156 C-37.29052734 34.11410156 -37.29052734 34.77410156 -37.29052734 35.45410156 C-37.95052734 35.45410156 -38.61052734 35.45410156 -39.29052734 35.45410156 C-39.29052734 36.11410156 -39.29052734 36.77410156 -39.29052734 37.45410156 C-39.95052734 37.45410156 -40.61052734 37.45410156 -41.29052734 37.45410156 C-41.29052734 38.11410156 -41.29052734 38.77410156 -41.29052734 39.45410156 C-42.28052734 39.45410156 -43.27052734 39.45410156 -44.29052734 39.45410156 C-44.52320313 40.01347412 -44.75587891 40.57284668 -44.99560547 41.14916992 C-46.62203434 44.04417651 -48.63783499 46.00818241 -51.00927734 48.33300781 C-52.40726563 49.71456055 -52.40726563 49.71456055 -53.83349609 51.12402344 C-54.81882477 52.08857219 -55.80450563 53.05276129 -56.79052734 54.01660156 C-58.72086639 55.91048922 -60.64696285 57.80848479 -62.57177734 59.70800781 C-63.42835938 60.54662354 -64.28494141 61.38523926 -65.16748047 62.24926758 C-67.42436829 64.46251315 -67.42436829 64.46251315 -69.29052734 67.45410156 C-69.95052734 67.12410156 -70.61052734 66.79410156 -71.29052734 66.45410156 C-66.63088813 60.84559036 -61.60555691 55.6842832 -56.3503418 50.63891602 C-53.02471553 47.38713557 -50.07302589 43.98254771 -47.17724609 40.34082031 C-41.74106308 33.60585329 -35.65028705 27.62789805 -29.47802734 21.57910156 C-27.79436706 19.92326438 -26.11231425 18.2658671 -24.43318176 16.60543823 C-23.39979475 15.58410643 -22.36374913 14.56545447 -21.32450867 13.55007935 C-19.15296033 11.40863112 -17.16461087 9.28815691 -15.3190918 6.85595703 C-10.85494847 1.57033397 -6.84020406 -0.04800143 0 0 Z " fill="#677972" transform="translate(276.29052734375,163.5458984375)"/>
<path d="M0 0 C0.66 0.33 1.32 0.66 2 1 C1.175 1.721875 0.35 2.44375 -0.5 3.1875 C-3.24407806 5.72917366 -3.24407806 5.72917366 -3.3125 8.8125 C-3.1578125 9.8953125 -3.1578125 9.8953125 -3 11 C-3.99 11.33 -4.98 11.66 -6 12 C-6.33 13.98 -6.66 15.96 -7 18 C-7.99 18 -8.98 18 -10 18 C-10.66 19.32 -11.32 20.64 -12 22 C-12.66 22 -13.32 22 -14 22 C-14.66 22.99 -15.32 23.98 -16 25 C-16.99 25.33 -17.98 25.66 -19 26 C-19 27.32 -19 28.64 -19 30 C-20.35484429 31.15161764 -21.72135364 32.2920693 -23.140625 33.36328125 C-26.3233199 36.16485512 -28.72265364 39.61243748 -31.265625 42.98828125 C-31.83796875 43.65214844 -32.4103125 44.31601563 -33 45 C-33.66 45 -34.32 45 -35 45 C-35 45.66 -35 46.32 -35 47 C-36.32 47 -37.64 47 -39 47 C-39.33 48.32 -39.66 49.64 -40 51 C-41.32 50.67 -42.64 50.34 -44 50 C-43.67 48.68 -43.34 47.36 -43 46 C-42.34 46 -41.68 46 -41 46 C-40.7525 45.44828125 -40.505 44.8965625 -40.25 44.328125 C-38.75765526 41.54863293 -36.96327477 39.2185293 -35 36.75 C-34.29875 35.85796875 -33.5975 34.9659375 -32.875 34.046875 C-32.25625 33.37140625 -31.6375 32.6959375 -31 32 C-30.34 32 -29.68 32 -29 32 C-29 31.34 -29 30.68 -29 30 C-28.34 30 -27.68 30 -27 30 C-27 29.34 -27 28.68 -27 28 C-26.34 28 -25.68 28 -25 28 C-25 27.34 -25 26.68 -25 26 C-24.34 26 -23.68 26 -23 26 C-23 25.34 -23 24.68 -23 24 C-22.34 24 -21.68 24 -21 24 C-21 23.34 -21 22.68 -21 22 C-20.34 22 -19.68 22 -19 22 C-19 21.34 -19 20.68 -19 20 C-18.34 20 -17.68 20 -17 20 C-17 19.34 -17 18.68 -17 18 C-16.34 18 -15.68 18 -15 18 C-15 17.34 -15 16.68 -15 16 C-14.34 16 -13.68 16 -13 16 C-13 15.34 -13 14.68 -13 14 C-12.34 14 -11.68 14 -11 14 C-11 13.34 -11 12.68 -11 12 C-10.34 12 -9.68 12 -9 12 C-9 11.34 -9 10.68 -9 10 C-8.34 10 -7.68 10 -7 10 C-7 9.34 -7 8.68 -7 8 C-6.34 8 -5.68 8 -5 8 C-4.9175 7.4225 -4.835 6.845 -4.75 6.25 C-3.79468987 3.3840696 -2.21530827 2.0009236 0 0 Z " fill="#538B87" transform="translate(230,129)"/>
<path d="M0 0 C0.66 0 1.32 0 2 0 C1.47470631 4.1088041 0.33192009 6.25519841 -2.4375 9.3125 C-3.05496094 10.00988281 -3.67242187 10.70726562 -4.30859375 11.42578125 C-6 13 -6 13 -8 13 C-8 13.66 -8 14.32 -8 15 C-8.66 15 -9.32 15 -10 15 C-10 15.66 -10 16.32 -10 17 C-10.66 17 -11.32 17 -12 17 C-12 17.66 -12 18.32 -12 19 C-12.66 19 -13.32 19 -14 19 C-14 19.66 -14 20.32 -14 21 C-14.66 21 -15.32 21 -16 21 C-16 21.66 -16 22.32 -16 23 C-16.66 23 -17.32 23 -18 23 C-18 23.66 -18 24.32 -18 25 C-18.66 25 -19.32 25 -20 25 C-20 25.66 -20 26.32 -20 27 C-20.66 27 -21.32 27 -22 27 C-22 27.66 -22 28.32 -22 29 C-22.66 29 -23.32 29 -24 29 C-24 29.66 -24 30.32 -24 31 C-24.66 31 -25.32 31 -26 31 C-26.66 32.32 -27.32 33.64 -28 35 C-28.66 35 -29.32 35 -30 35 C-30 35.66 -30 36.32 -30 37 C-30.66 37 -31.32 37 -32 37 C-32 37.66 -32 38.32 -32 39 C-32.66 39 -33.32 39 -34 39 C-34 39.66 -34 40.32 -34 41 C-34.66 41 -35.32 41 -36 41 C-36 41.66 -36 42.32 -36 43 C-36.66 43 -37.32 43 -38 43 C-38 43.66 -38 44.32 -38 45 C-39.32 45 -40.64 45 -42 45 C-42 45.66 -42 46.32 -42 47 C-43.32 47 -44.64 47 -46 47 C-46 47.66 -46 48.32 -46 49 C-47.32 49 -48.64 49 -50 49 C-50 49.66 -50 50.32 -50 51 C-52.64 51 -55.28 51 -58 51 C-58 50.67 -58 50.34 -58 50 C-57.38253906 49.84144531 -56.76507813 49.68289063 -56.12890625 49.51953125 C-46.70079032 46.92213554 -39.59785023 43.27455282 -33 36 C-34.485 35.505 -34.485 35.505 -36 35 C-34 32 -34 32 -31 31 C-30.690625 30.175 -30.38125 29.35 -30.0625 28.5 C-29.5365625 27.2625 -29.5365625 27.2625 -29 26 C-26.875 25.1875 -26.875 25.1875 -25 25 C-25 24.34 -25 23.68 -25 23 C-24.34 23 -23.68 23 -23 23 C-22.7525 22.38125 -22.505 21.7625 -22.25 21.125 C-20.79371361 18.64931313 -19.62187494 18.04874998 -17 17 C-17 16.34 -17 15.68 -17 15 C-16.34 15 -15.68 15 -15 15 C-15 14.34 -15 13.68 -15 13 C-14.4121875 12.90203125 -13.824375 12.8040625 -13.21875 12.703125 C-10.55954586 11.86041946 -9.41836747 10.755566 -7.5 8.75 C-6.89800781 8.12480469 -6.29601562 7.49960938 -5.67578125 6.85546875 C-4.28269416 5.31300636 -2.97313442 3.69560318 -1.6875 2.0625 C-1.130625 1.381875 -0.57375 0.70125 0 0 Z " fill="#697D73" transform="translate(203,232)"/>
<path d="M0 0 C0.58623075 0.14067587 1.17246151 0.28135174 1.77645683 0.42629051 C8.47712373 1.91485991 14.84283728 2.304613 21.69189453 2.31884766 C22.81501541 2.32889328 23.93813629 2.3389389 25.09529114 2.34928894 C28.77446015 2.37995851 32.45355693 2.3971109 36.1328125 2.4140625 C38.6968548 2.43278719 41.26089103 2.45236156 43.82492065 2.4727478 C49.86298597 2.51871711 55.90104497 2.55617421 61.93918884 2.58942068 C68.81963689 2.62778644 75.69999262 2.67715816 82.58036256 2.72740483 C96.72017304 2.83042249 110.8600431 2.91977989 125 3 C125 3.66 125 4.32 125 5 C85.07 5 45.14 5 4 5 C3.67 4.01 3.34 3.02 3 2 C2.01 1.67 1.02 1.34 0 1 C0 0.67 0 0.34 0 0 Z " fill="#575B55" transform="translate(20,280)"/>
<path d="M0 0 C1.98 0 3.96 0 6 0 C4.02 0.99 4.02 0.99 2 2 C3.66611905 2.042721 5.33382885 2.04063832 7 2 C7.33 1.67 7.66 1.34 8 1 C9.48273128 0.89562559 10.97039064 0.86037731 12.45677185 0.85282898 C13.41973679 0.84567368 14.38270172 0.83851837 15.37484741 0.83114624 C16.97291733 0.82711288 16.97291733 0.82711288 18.60327148 0.82299805 C20.27651741 0.81314125 20.27651741 0.81314125 21.98356628 0.80308533 C25.69607605 0.78328612 29.40854513 0.7716718 33.12109375 0.76171875 C34.3874724 0.75764322 35.65385105 0.7535677 36.95860481 0.74936867 C42.97501371 0.73063245 48.99139787 0.71607762 55.00782818 0.7077567 C61.93949517 0.69801123 68.87084053 0.6717707 75.80239433 0.63125581 C81.81396458 0.59733321 87.82538019 0.58560104 93.8370533 0.58155251 C96.38823684 0.57668846 98.93941701 0.56507976 101.49053764 0.54651451 C105.0713414 0.52208699 108.65131562 0.52309591 112.23217773 0.5300293 C113.80292053 0.51081421 113.80292053 0.51081421 115.40539551 0.49121094 C122.16587343 0.53870812 128.08540951 1.5413978 134 5 C134.99 6.485 134.99 6.485 136 8 C135.0409375 7.5978125 135.0409375 7.5978125 134.0625 7.1875 C123.31366494 2.8254411 123.31366494 2.8254411 112 4 C112 3.34 112 2.68 112 2 C110.78663216 2.1071936 110.78663216 2.1071936 109.54875183 2.21655273 C100.66436564 2.93391021 91.87398762 3.1236156 82.96630287 3.07516479 C80.54679617 3.06214215 78.1273457 3.05582167 75.70780945 3.05102539 C70.57601399 3.03972731 65.44426597 3.02047792 60.3125 3 C54.34572344 2.97624357 48.37897395 2.95591658 42.41216087 2.94406128 C40.04876872 2.93766374 37.6854625 2.92516396 35.32209778 2.91235352 C22.30163127 2.1538737 22.30163127 2.1538737 10 5 C7.6670134 5.04022391 5.33293334 5.04320247 3 5 C3 5.66 3 6.32 3 7 C1.68 7 0.36 7 -1 7 C-1 6.34 -1 5.68 -1 5 C-1.68707031 5.27714844 -2.37414062 5.55429688 -3.08203125 5.83984375 C-3.98308594 6.20207031 -4.88414062 6.56429687 -5.8125 6.9375 C-7.15248047 7.47697266 -7.15248047 7.47697266 -8.51953125 8.02734375 C-10.3270909 8.73613486 -12.15807409 9.3860247 -14 10 C-14 9.34 -14 8.68 -14 8 C-13.34 8 -12.68 8 -12 8 C-12 7.34 -12 6.68 -12 6 C-10.68 6 -9.36 6 -8 6 C-8 5.34 -8 4.68 -8 4 C-6.68 4 -5.36 4 -4 4 C-4 3.34 -4 2.68 -4 2 C-2.68 2 -1.36 2 0 2 C0 1.34 0 0.68 0 0 Z " fill="#139991" transform="translate(249,117)"/>
<path d="M0 0 C44.055 0.495 44.055 0.495 89 1 C89 1.99 89 2.98 89 4 C91.97 4 94.94 4 98 4 C98.495 4.99 98.495 4.99 99 6 C95.37 6.33 91.74 6.66 88 7 C88 6.34 88 5.68 88 5 C59.29 4.67 30.58 4.34 1 4 C0.67 2.68 0.34 1.36 0 0 Z " fill="#6B8A8B" transform="translate(51,114)"/>
<path d="M0 0 C36.3 0 72.6 0 110 0 C110 0.33 110 0.66 110 1 C108.74656296 1.00364563 107.49312592 1.00729126 106.20170593 1.01104736 C94.35848171 1.04807403 82.51551566 1.10593067 70.67248821 1.18390274 C64.58462675 1.22332207 58.49690874 1.25553789 52.40893555 1.27099609 C46.52783827 1.28619896 40.64713552 1.32070951 34.76621437 1.36830902 C32.52851615 1.38308532 30.2907616 1.39103885 28.05301476 1.39188385 C10.36227541 1.37455441 10.36227541 1.37455441 -5.9375 7.6875 C-10.92813082 13.28305576 -12.38252029 19.71373944 -13 27 C-13.52554298 29.43063626 -14.21095044 31.63285132 -15 34 C-17.01899871 31.98100129 -16.18506846 28.01222841 -16.1875 25.25 C-16.19974609 24.53328125 -16.21199219 23.8165625 -16.22460938 23.078125 C-16.2360447 18.93091292 -15.8557613 15.72619265 -14 12 C-13.34 12 -12.68 12 -12 12 C-11.5978125 10.8553125 -11.5978125 10.8553125 -11.1875 9.6875 C-10.04204753 7.09516021 -9.23584819 5.69924463 -7 4 C-6.01 4 -5.02 4 -4 4 C-4 3.34 -4 2.68 -4 2 C-2.68 2 -1.36 2 0 2 C0 1.34 0 0.68 0 0 Z " fill="#88CDCE" transform="translate(21,235)"/>
<path d="M0 0 C0.99 0.495 0.99 0.495 2 1 C-4.81571503 9.11296593 -13.47558239 14.24460161 -24 16 C-25.65403864 16.08440725 -27.31092737 16.12206456 -28.96711731 16.12025452 C-29.94161835 16.12162918 -30.91611938 16.12300385 -31.92015076 16.12442017 C-32.97750931 16.12082489 -34.03486786 16.11722961 -35.12426758 16.11352539 C-36.24665833 16.11367142 -37.36904907 16.11381744 -38.52545166 16.1139679 C-42.23183125 16.11327176 -45.93816045 16.10549328 -49.64453125 16.09765625 C-52.21571322 16.09579101 -54.78689555 16.09436761 -57.358078 16.09336853 C-63.43175941 16.08994173 -69.50542005 16.08206183 -75.57909364 16.07201904 C-82.49564138 16.06083146 -89.41218999 16.05534079 -96.32874453 16.05032361 C-110.55250604 16.0398785 -124.77625238 16.02229555 -139 16 C-139 15.67 -139 15.34 -139 15 C-138.16622644 14.99641747 -138.16622644 14.99641747 -137.31560898 14.99276257 C-123.74198018 14.93342617 -110.16852829 14.8575735 -96.59508896 14.76428509 C-90.03085318 14.71966164 -83.46667832 14.68038774 -76.90234375 14.65356445 C-70.56095111 14.62745159 -64.21979392 14.58699255 -57.87854767 14.53681374 C-55.46583243 14.52019898 -53.05307651 14.50865129 -50.64031219 14.50238609 C-47.2466139 14.49268637 -43.85351071 14.46455658 -40.45996094 14.43237305 C-38.98180405 14.43452568 -38.98180405 14.43452568 -37.4737854 14.4367218 C-25.15216739 14.27272862 -10.79904999 11.09757914 -1.75 2.125 C-1.1725 1.42375 -0.595 0.7225 0 0 Z " fill="#80D6E7" transform="translate(169,267)"/>
<path d="M0 0 C0.33 0 0.66 0 1 0 C1.06058594 0.77085937 1.12117187 1.54171875 1.18359375 2.3359375 C1.26738281 3.33882813 1.35117188 4.34171875 1.4375 5.375 C1.55931641 6.87160156 1.55931641 6.87160156 1.68359375 8.3984375 C1.84965626 10.97927613 1.84965626 10.97927613 3 13 C5.07549472 14.21666932 6.82332299 14.9646646 9.1875 15.4375 C9.785625 15.623125 10.38375 15.80875 11 16 C12 19 12 19 11 22 C11.66 22.33 12.32 22.66 13 23 C12.34 23 11.68 23 11 23 C11 23.66 11 24.32 11 25 C11.66 25.33 12.32 25.66 13 26 C13.66 26.99 14.32 27.98 15 29 C13.68 29 12.36 29 11 29 C11 28.34 11 27.68 11 27 C9.68 27 8.36 27 7 27 C7 26.34 7 25.68 7 25 C6.34 25 5.68 25 5 25 C5 24.34 5 23.68 5 23 C4.34 23 3.68 23 3 23 C3 22.34 3 21.68 3 21 C2.34 21 1.68 21 1 21 C1 20.34 1 19.68 1 19 C0.34 19 -0.32 19 -1 19 C-3.33333333 5 -3.33333333 5 0 0 Z " fill="#45B7AA" transform="translate(8,254)"/>
<path d="M0 0 C1.32 0.33 2.64 0.66 4 1 C4 1.66 4 2.32 4 3 C4.66 3 5.32 3 6 3 C6 3.66 6 4.32 6 5 C7.32 5.66 8.64 6.32 10 7 C10 7.66 10 8.32 10 9 C10.66 9 11.32 9 12 9 C14.84532517 17.18030985 14.84532517 24.81969015 12 33 C11.34 33 10.68 33 10 33 C10 34.32 10 35.64 10 37 C9.34 37 8.68 37 8 37 C8 37.66 8 38.32 8 39 C6.35 39.66 4.7 40.32 3 41 C3.9590625 39.9790625 3.9590625 39.9790625 4.9375 38.9375 C7.36370264 35.48199927 7.62825658 33.16352628 8 29 C8.20625 28.113125 8.4125 27.22625 8.625 26.3125 C9.0239703 23.85218313 8.6752373 22.36333054 8 20 C8.33 19.67 8.66 19.34 9 19 C8.78538075 16.72443638 8.78538075 16.72443638 8.25 14.125 C8.09015625 13.24070313 7.9303125 12.35640625 7.765625 11.4453125 C6.92967208 8.77538122 6.19496608 7.69417285 4 6 C3.01 5.67 2.02 5.34 1 5 C0.67 3.35 0.34 1.7 0 0 Z " fill="#709C96" transform="translate(381,238)"/>
<path d="M0 0 C1.62550278 -0.00043808 1.62550278 -0.00043808 3.28384399 -0.00088501 C6.84954969 0.00050328 10.4150439 0.0160411 13.98071289 0.03173828 C16.45935451 0.03547019 18.93799761 0.03831632 21.41664124 0.04031372 C27.92843729 0.04793617 34.4401436 0.06757283 40.9519043 0.08972168 C47.6014639 0.11129616 54.25104968 0.11932182 60.90063477 0.12939453 C73.93908443 0.15081995 86.977472 0.18455271 100.01586914 0.22705078 C100.01586914 0.55705078 100.01586914 0.88705078 100.01586914 1.22705078 C98.76021149 1.23735825 97.50455383 1.24766571 96.21084595 1.25828552 C84.35270168 1.35622355 72.4946075 1.458976 60.63654518 1.56639004 C54.54083609 1.62145355 48.44512208 1.67484616 42.34936523 1.72436523 C36.46193869 1.77225432 30.57456688 1.82460433 24.68720627 1.87999153 C22.4458694 1.9003044 20.2045176 1.91903493 17.96315384 1.9361248 C14.81351603 1.96041567 11.66397928 1.99043397 8.5144043 2.02172852 C7.13767044 2.03036171 7.13767044 2.03036171 5.73312378 2.03916931 C-4.25361158 1.42289751 -4.25361158 1.42289751 -12.98413086 4.22705078 C-14.9837145 4.26785861 -16.9845834 4.26959434 -18.98413086 4.22705078 C-17.98413086 2.22705078 -17.98413086 2.22705078 -15.10813904 1.11624146 C-10.11551668 -0.1774057 -5.12591907 -0.03639362 0 0 Z " fill="#B0DEDC" transform="translate(268.984130859375,115.77294921875)"/>
<path d="M0 0 C0.66 0 1.32 0 2 0 C0.41586862 3.96032845 -2.35230206 6.54605078 -5.375 9.4375 C-8.84281524 12.78014009 -12.06536809 16.16828867 -15 20 C-13.68 19.34 -12.36 18.68 -11 18 C-11.66 19.32 -12.32 20.64 -13 22 C-13.66 22 -14.32 22 -15 22 C-15 22.66 -15 23.32 -15 24 C-15.66 24 -16.32 24 -17 24 C-17 24.66 -17 25.32 -17 26 C-17.66 26 -18.32 26 -19 26 C-19 26.66 -19 27.32 -19 28 C-19.66 28 -20.32 28 -21 28 C-21 28.66 -21 29.32 -21 30 C-21.66 30 -22.32 30 -23 30 C-23 30.66 -23 31.32 -23 32 C-24.32 32 -25.64 32 -27 32 C-27 32.66 -27 33.32 -27 34 C-28.32 34 -29.64 34 -31 34 C-31 34.66 -31 35.32 -31 36 C-32.32 36 -33.64 36 -35 36 C-35 36.66 -35 37.32 -35 38 C-37.64 38 -40.28 38 -43 38 C-43 37.67 -43 37.34 -43 37 C-42.38253906 36.84144531 -41.76507813 36.68289063 -41.12890625 36.51953125 C-31.70079032 33.92213554 -24.59785023 30.27455282 -18 23 C-18.99 22.67 -19.98 22.34 -21 22 C-19 19 -19 19 -16 18 C-15.690625 17.175 -15.38125 16.35 -15.0625 15.5 C-14.711875 14.675 -14.36125 13.85 -14 13 C-11.875 12.1875 -11.875 12.1875 -10 12 C-10 11.34 -10 10.68 -10 10 C-9.34 10 -8.68 10 -8 10 C-7.7525 9.38125 -7.505 8.7625 -7.25 8.125 C-5.79371361 5.64931313 -4.62187494 5.04874998 -2 4 C-2 3.34 -2 2.68 -2 2 C-1.34 2 -0.68 2 0 2 C0 1.34 0 0.68 0 0 Z " fill="#13544C" transform="translate(188,245)"/>
<path d="M0 0 C1.4370809 -0.05422947 2.87475462 -0.09289723 4.3125 -0.125 C5.11300781 -0.14820313 5.91351563 -0.17140625 6.73828125 -0.1953125 C9 0 9 0 12 2 C12 2.66 12 3.32 12 4 C12.66 4 13.32 4 14 4 C13.67 4.66 13.34 5.32 13 6 C11.02 4.68 9.04 3.36 7 2 C7.66 3.98 8.32 5.96 9 8 C8.29875 7.5875 7.5975 7.175 6.875 6.75 C3.86981427 5.61390765 3.86981427 5.61390765 0.9375 7.6875 C-0.75237249 9.01782515 -2.44077742 10.35002913 -4.125 11.6875 C-6 13 -6 13 -8.1875 13.5 C-8.785625 13.665 -9.38375 13.83 -10 14 C-10.33 14.99 -10.66 15.98 -11 17 C-11.99 16.67 -12.98 16.34 -14 16 C-14 15.34 -14 14.68 -14 14 C-13.34 14 -12.68 14 -12 14 C-12 13.34 -12 12.68 -12 12 C-11.34 12 -10.68 12 -10 12 C-10 11.34 -10 10.68 -10 10 C-9.34 10 -8.68 10 -8 10 C-8 9.34 -8 8.68 -8 8 C-7.34 8 -6.68 8 -6 8 C-6 7.34 -6 6.68 -6 6 C-5.34 6 -4.68 6 -4 6 C-4 5.34 -4 4.68 -4 4 C-3.34 4 -2.68 4 -2 4 C-2 3.34 -2 2.68 -2 2 C-1.34 2 -0.68 2 0 2 C0 1.34 0 0.68 0 0 Z " fill="#79BEB9" transform="translate(237,209)"/>
<path d="M0 0 C5.94 0 11.88 0 18 0 C18 0.33 18 0.66 18 1 C12.39 1 6.78 1 1 1 C1 1.66 1 2.32 1 3 C3.97 3 6.94 3 10 3 C7.48169253 6.12270126 6.2738451 6.94523098 2.25 7.75 C1.1775 7.8325 0.105 7.915 -1 8 C-1 8.99 -1 9.98 -1 11 C-2.65 10.67 -4.3 10.34 -6 10 C-6.433125 10.928125 -6.433125 10.928125 -6.875 11.875 C-8 14 -8 14 -10 16 C-10.99 16 -11.98 16 -13 16 C-13.33 16.66 -13.66 17.32 -14 18 C-14.66 18 -15.32 18 -16 18 C-16 16.68 -16 15.36 -16 14 C-14.68 14 -13.36 14 -12 14 C-12 13.34 -12 12.68 -12 12 C-11.34 12 -10.68 12 -10 12 C-10 11.34 -10 10.68 -10 10 C-9.34 10 -8.68 10 -8 10 C-8 9.34 -8 8.68 -8 8 C-7.34 8 -6.68 8 -6 8 C-6 7.34 -6 6.68 -6 6 C-5.34 6 -4.68 6 -4 6 C-4 5.34 -4 4.68 -4 4 C-3.34 4 -2.68 4 -2 4 C-2 3.34 -2 2.68 -2 2 C-1.34 2 -0.68 2 0 2 C0 1.34 0 0.68 0 0 Z " fill="#578986" transform="translate(25,115)"/>
<path d="M0 0 C1.32 0.66 2.64 1.32 4 2 C3.58113525 2.39791748 3.16227051 2.79583496 2.73071289 3.20581055 C0.83077158 5.02237712 -1.0533231 6.85459322 -2.9375 8.6875 C-3.59685547 9.31333984 -4.25621094 9.93917969 -4.93554688 10.58398438 C-9.55406228 14.95822223 -9.55406228 14.95822223 -11 21 C-11.99 21 -12.98 21 -14 21 C-14 22.32 -14 23.64 -14 25 C-15.98 25 -17.96 25 -20 25 C-19.67 23.68 -19.34 22.36 -19 21 C-18.34 21 -17.68 21 -17 21 C-16.67 19.35 -16.34 17.7 -16 16 C-15.34 16 -14.68 16 -14 16 C-14 15.34 -14 14.68 -14 14 C-13.34 14 -12.68 14 -12 14 C-12 13.34 -12 12.68 -12 12 C-11.34 12 -10.68 12 -10 12 C-10 11.34 -10 10.68 -10 10 C-9.34 10 -8.68 10 -8 10 C-8 9.34 -8 8.68 -8 8 C-7.34 8 -6.68 8 -6 8 C-6 7.34 -6 6.68 -6 6 C-5.34 6 -4.68 6 -4 6 C-4 5.34 -4 4.68 -4 4 C-3.34 4 -2.68 4 -2 4 C-2 3.34 -2 2.68 -2 2 C-1.34 2 -0.68 2 0 2 C0 1.34 0 0.68 0 0 Z " fill="#657F7A" transform="translate(181,181)"/>
<path d="M0 0 C0.99 0.33 1.98 0.66 3 1 C3 3.31 3 5.62 3 8 C4.0828125 8.061875 4.0828125 8.061875 5.1875 8.125 C9.82585099 9.56804253 12.02984126 13.24447466 14.3125 17.375 C14.539375 17.91125 14.76625 18.4475 15 19 C15.66 19 16.32 19 17 19 C16.67 20.32 16.34 21.64 16 23 C14.68 22.67 13.36 22.34 12 22 C12 21.34 12 20.68 12 20 C11.34 20 10.68 20 10 20 C10 19.34 10 18.68 10 18 C9.34 18 8.68 18 8 18 C8 17.34 8 16.68 8 16 C7.34 16 6.68 16 6 16 C6 15.34 6 14.68 6 14 C5.34 14 4.68 14 4 14 C4 13.34 4 12.68 4 12 C3.34 12 2.68 12 2 12 C2 11.34 2 10.68 2 10 C1.34 10 0.68 10 0 10 C-1.125 6.6875 -1.125 6.6875 -2 3 C-1.34 2.01 -0.68 1.02 0 0 Z " fill="#6DA099" transform="translate(209,239)"/>
<path d="M0 0 C0.66 0 1.32 0 2 0 C0.82280791 4.1201723 -0.9237061 5.90451419 -4.28515625 8.46875 C-7.08966787 10.97300639 -9.12983097 14.04792936 -11.2890625 17.109375 C-13.22768645 19.25159873 -14.25751238 19.42384714 -17 20 C-18.15521502 22.47130918 -18.15521502 22.47130918 -19 25 C-19.66 25.33 -20.32 25.66 -21 26 C-21.44140625 23.94140625 -21.44140625 23.94140625 -21 21 C-18.90246838 18.37827819 -16.42403183 16.18562993 -13.9375 13.9375 C-12.60224642 12.72953466 -11.2773933 11.50994104 -9.96484375 10.27734375 C-9.3730835 9.74359131 -8.78132324 9.20983887 -8.17163086 8.65991211 C-6.73809861 7.03196653 -6.73809861 7.03196653 -7.31469727 4.79516602 C-7.54084717 4.20276123 -7.76699707 3.61035645 -8 3 C-7.34 3 -6.68 3 -6 3 C-6 2.34 -6 1.68 -6 1 C-5.34 1.33 -4.68 1.66 -4 2 C-3.01 2.33 -2.02 2.66 -1 3 C-0.67 2.01 -0.34 1.02 0 0 Z M-24 26 C-23.01 26.33 -22.02 26.66 -21 27 C-21.99 27.66 -22.98 28.32 -24 29 C-24 28.01 -24 27.02 -24 26 Z " fill="#189A9B" transform="translate(191,176)"/>
<path d="M0 0 C0.5775 0.20625 1.155 0.4125 1.75 0.625 C1.75 1.285 1.75 1.945 1.75 2.625 C22.54 2.625 43.33 2.625 64.75 2.625 C64.75 2.955 64.75 3.285 64.75 3.625 C36.37 3.625 7.99 3.625 -21.25 3.625 C-21.25 3.295 -21.25 2.965 -21.25 2.625 C-20.21359375 2.57601562 -19.1771875 2.52703125 -18.109375 2.4765625 C-16.73955792 2.40150403 -15.36976752 2.32595753 -14 2.25 C-13.31808594 2.2190625 -12.63617188 2.188125 -11.93359375 2.15625 C-7.84733977 1.91821579 -3.723447 -0.6205745 0 0 Z " fill="#A9DFDF" transform="translate(49.25,113.375)"/>
<path d="M0 0 C-0.67097672 4.19360449 -2.8558394 7.40334352 -5 11 C-5.66 11 -6.32 11 -7 11 C-7 11.66 -7 12.32 -7 13 C-8.32 13 -9.64 13 -11 13 C-11.33 14.32 -11.66 15.64 -12 17 C-13.32 16.67 -14.64 16.34 -16 16 C-15.67 14.68 -15.34 13.36 -15 12 C-14.34 12 -13.68 12 -13 12 C-12.73058594 11.41605469 -12.46117187 10.83210937 -12.18359375 10.23046875 C-10.99689769 7.99415374 -9.70202394 6.23570747 -8.0625 4.3125 C-7.55847656 3.71050781 -7.05445313 3.10851562 -6.53515625 2.48828125 C-4.52543984 0.53993022 -2.78678377 0 0 0 Z " fill="#2A999F" transform="translate(202,163)"/>
<path d="M0 0 C0.99 -0.33 1.98 -0.66 3 -1 C4.81448314 -1.0980962 6.63234369 -1.13821122 8.44946289 -1.14526367 C10.12118309 -1.15483345 10.12118309 -1.15483345 11.82667542 -1.16459656 C13.02984909 -1.16570938 14.23302277 -1.1668222 15.47265625 -1.16796875 C16.70664658 -1.17129715 17.9406369 -1.17462555 19.21202087 -1.17805481 C21.82208889 -1.1831205 24.4321634 -1.18546325 27.04223633 -1.18530273 C29.7242706 -1.18522116 32.40613525 -1.19221039 35.08813477 -1.20581055 C38.94552884 -1.22404714 42.8027235 -1.22903525 46.66015625 -1.23046875 C48.46795311 -1.24124702 48.46795311 -1.24124702 50.31227112 -1.25224304 C51.42359909 -1.24916641 52.53492706 -1.24608978 53.67993164 -1.24291992 C55.15194786 -1.24505745 55.15194786 -1.24505745 56.65370178 -1.24723816 C59 -1 59 -1 61 1 C52.46395062 1.17708556 43.9277883 1.34303231 35.39125443 1.49477577 C31.42737201 1.56558662 27.463639 1.64022754 23.5 1.72363281 C19.674635 1.80398732 15.84920521 1.87426616 12.02352142 1.93757248 C10.56422866 1.96348937 9.10499563 1.99303191 7.64585114 2.02626419 C5.60150585 2.07220416 3.55732772 2.10522949 1.51269531 2.13525391 C0.34909485 2.15746002 -0.81450562 2.17966614 -2.0133667 2.20254517 C-4.9273542 2.00492664 -6.5478874 1.52633416 -9 0 C-5.49595163 -1.16801612 -3.58912879 -0.59818813 0 0 Z " fill="#119CA3" transform="translate(31,280)"/>
<path d="M0 0 C2.62127349 1.11246487 4.63949006 2.37387093 7 4 C7 4.66 7 5.32 7 6 C7.66 6 8.32 6 9 6 C9 6.66 9 7.32 9 8 C9.66 8 10.32 8 11 8 C11 9.98 11 11.96 11 14 C10.278125 13.2575 9.55625 12.515 8.8125 11.75 C1.48980108 4.59002773 -4.89502515 1.9022299 -15 1 C-10.12817947 -1.94362927 -5.39896839 -1.08739786 0 0 Z " fill="#769493" transform="translate(380,117)"/>
<path d="M0 0 C0.66 0.33 1.32 0.66 2 1 C-4.58943735 8.98719679 -11.42377724 16.55194242 -18.8125 23.8125 C-20.32132992 25.29582138 -21.82794327 26.78140176 -23.33203125 28.26953125 C-23.98921143 28.91510986 -24.6463916 29.56068848 -25.32348633 30.22583008 C-27.18705906 32.098266 -27.18705906 32.098266 -29 35 C-29.66 34.67 -30.32 34.34 -31 34 C-26.80273655 28.94802108 -22.30749527 24.28328239 -17.625 19.6875 C-12.611517 14.75469374 -8.06790589 9.67046331 -3.70703125 4.14453125 C-2 2 -2 2 0 0 Z " fill="#A8D1BE" transform="translate(236,196)"/>
<path d="M0 0 C0.99 0.495 0.99 0.495 2 1 C2.30859375 3.4765625 2.30859375 3.4765625 2.4375 6.625 C2.96723815 14.32447002 4.81872803 19.10406982 10 25 C9.67 25.66 9.34 26.32 9 27 C10.32 27.66 11.64 28.32 13 29 C10 29 10 29 8 28 C8 27.34 8 26.68 8 26 C7.34 26 6.68 26 6 26 C6 25.34 6 24.68 6 24 C5.34 24 4.68 24 4 24 C4 23.34 4 22.68 4 22 C3.34 22 2.68 22 2 22 C2 20.68 2 19.36 2 18 C1.34 18 0.68 18 0 18 C0 12.06 0 6.12 0 0 Z " fill="#4A6260" transform="translate(7,133)"/>
<path d="M0 0 C6.38623323 -0.07647595 12.77234702 -0.12877762 19.15893555 -0.16479492 C21.3285768 -0.17982036 23.49818798 -0.20024653 25.66772461 -0.22631836 C28.7980901 -0.26297706 31.9280517 -0.27978926 35.05859375 -0.29296875 C36.01833603 -0.30845261 36.97807831 -0.32393646 37.96690369 -0.33988953 C43.99861276 -0.34137467 49.53212492 0.26479738 55 3 C55.495 3.99 55.495 3.99 56 5 C54.39536551 4.68991116 52.79130769 4.37683713 51.1875 4.0625 C50.29417969 3.88847656 49.40085938 3.71445313 48.48046875 3.53515625 C46 3 46 3 43 2 C41.5735686 1.88677175 40.1427751 1.82404524 38.7121582 1.79467773 C37.85149246 1.77473251 36.99082672 1.75478729 36.1040802 1.73423767 C34.71644722 1.70916893 34.71644722 1.70916893 33.30078125 1.68359375 C32.35059616 1.66281265 31.40041107 1.64203156 30.4214325 1.62062073 C27.38519544 1.55521948 24.34887169 1.49628396 21.3125 1.4375 C19.25454831 1.39430583 17.19660541 1.35069124 15.13867188 1.30664062 C10.09253684 1.19954769 5.04631457 1.09825354 0 1 C0 0.67 0 0.34 0 0 Z " fill="#86CECB" transform="translate(80,162)"/>
<path d="M0 0 C-1.13332649 3.39997948 -2.62437747 4.48048355 -5.3671875 6.66015625 C-7.75096965 8.61622629 -9.85251622 10.78935494 -12 13 C-11.34 11.02 -10.68 9.04 -10 7 C-11.32 7.33 -12.64 7.66 -14 8 C-13.67 7.01 -13.34 6.02 -13 5 C-12.34 5 -11.68 5 -11 5 C-11 4.34 -11 3.68 -11 3 C-10.34 3 -9.68 3 -9 3 C-9 2.34 -9 1.68 -9 1 C-5.8035914 -0.06546953 -3.34252724 -0.07427838 0 0 Z " fill="#1E97A0" transform="translate(212,156)"/>
<path d="M0 0 C0 0.66 0 1.32 0 2 C-5.29411765 6 -5.29411765 6 -9 6 C-9.66 7.32 -10.32 8.64 -11 10 C-11.33 9.34 -11.66 8.68 -12 8 C-15.5863464 9.93856562 -17.62660802 11.7224587 -20 15 C-20.66 15 -21.32 15 -22 15 C-19.86794912 9.960607 -16.76187782 6.07244737 -12.125 3.25 C-4 0 -4 0 0 0 Z " fill="#2A9798" transform="translate(248,122)"/>
<path d="M0 0 C8.58 0 17.16 0 26 0 C26 0.66 26 1.32 26 2 C28.97 2 31.94 2 35 2 C35.495 2.99 35.495 2.99 36 4 C32.37 4.33 28.74 4.66 25 5 C25 4.34 25 3.68 25 3 C16.75 2.34 8.5 1.68 0 1 C0 0.67 0 0.34 0 0 Z " fill="#9ED5D2" transform="translate(114,116)"/>
<path d="M0 0 C-0.99 0.33 -1.98 0.66 -3 1 C-3.69937532 2.31647119 -4.36729133 3.65022151 -5 5 C-5.99 5.495 -5.99 5.495 -7 6 C-7.66 5.67 -8.32 5.34 -9 5 C-9.433125 6.0828125 -9.433125 6.0828125 -9.875 7.1875 C-10.91666667 9.79166667 -11.95833333 12.39583333 -13 15 C-13.99 15 -14.98 15 -16 15 C-15.7123319 9.10280393 -13.20341594 5.86286141 -9 2 C-3.79591837 -1.26530612 -3.79591837 -1.26530612 0 0 Z M-8 6 C-7.67 6.66 -7.34 7.32 -7 8 C-7.66 7.67 -8.32 7.34 -9 7 C-8.67 6.67 -8.34 6.34 -8 6 Z " fill="#219E9D" transform="translate(25,239)"/>
<path d="M0 0 C1.67542976 0.28604898 3.34385343 0.61781233 5 1 C5 1.66 5 2.32 5 3 C5.763125 3.061875 6.52625 3.12375 7.3125 3.1875 C10 4 10 4 11.8125 6.4375 C13 9 13 9 13 11 C12.01 11 11.02 11 10 11 C9.67 10.01 9.34 9.02 9 8 C8.34 7.67 7.68 7.34 7 7 C7 7.99 7 8.98 7 10 C6.34 10 5.68 10 5 10 C4.62875 8.6078125 4.62875 8.6078125 4.25 7.1875 C2.93545755 3.83541675 2.02036616 2.8122197 -1 1 C-0.67 0.67 -0.34 0.34 0 0 Z " fill="#61BCB2" transform="translate(377,240)"/>
<path d="M0 0 C0.66 0.33 1.32 0.66 2 1 C1.625 3.9375 1.625 3.9375 1 7 C0.01 7.495 0.01 7.495 -1 8 C-1.33 8.99 -1.66 9.98 -2 11 C-2.969375 11.12375 -3.93875 11.2475 -4.9375 11.375 C-5.948125 11.58125 -6.95875 11.7875 -8 12 C-8.33 12.66 -8.66 13.32 -9 14 C-9.66 13.67 -10.32 13.34 -11 13 C-10.21654285 11.82780457 -9.42297164 10.66236332 -8.625 9.5 C-8.18414062 8.8503125 -7.74328125 8.200625 -7.2890625 7.53125 C-6.86367187 7.0259375 -6.43828125 6.520625 -6 6 C-5.34 6 -4.68 6 -4 6 C-4 5.34 -4 4.68 -4 4 C-3.34 4 -2.68 4 -2 4 C-2 3.34 -2 2.68 -2 2 C-1.34 2 -0.68 2 0 2 C0 1.34 0 0.68 0 0 Z " fill="#86ACA9" transform="translate(221,225)"/>
<path d="M0 0 C0.66 0.33 1.32 0.66 2 1 C-2.84277871 6.5123975 -7.78388135 11.902815 -12.9375 17.125 C-13.85402344 18.05570313 -14.77054688 18.98640625 -15.71484375 19.9453125 C-18 22 -18 22 -20 22 C-20 21.34 -20 20.68 -20 20 C-19.34 20 -18.68 20 -18 20 C-18 19.34 -18 18.68 -18 18 C-17.34 18 -16.68 18 -16 18 C-15.34 16.68 -14.68 15.36 -14 14 C-13.34 14 -12.68 14 -12 14 C-11.34 12.68 -10.68 11.36 -10 10 C-9.34 10 -8.68 10 -8 10 C-7.79375 9.46375 -7.5875 8.9275 -7.375 8.375 C-5.42003056 4.9982346 -2.81776305 2.69525161 0 0 Z " fill="#179683" transform="translate(260,169)"/>
<path d="M0 0 C0.66 0.33 1.32 0.66 2 1 C-4.51110168 8.7503748 -12.30649886 13.33077701 -22.1484375 15.78515625 C-25.19505973 16.01469628 -26.47896454 15.64836934 -29 14 C-27.90945312 13.77957031 -27.90945312 13.77957031 -26.796875 13.5546875 C-16.87865512 11.34216153 -6.65881502 8.08570395 0 0 Z " fill="#95C2BF" transform="translate(169,267)"/>
<path d="M0 0 C1.4370809 -0.05422947 2.87475462 -0.09289723 4.3125 -0.125 C5.11300781 -0.14820313 5.91351563 -0.17140625 6.73828125 -0.1953125 C9 0 9 0 12 2 C12 2.66 12 3.32 12 4 C12.66 4 13.32 4 14 4 C13.67 4.66 13.34 5.32 13 6 C12.29875 5.34 11.5975 4.68 10.875 4 C8.14004699 1.80119576 8.14004699 1.80119576 4.875 1.4375 C1.80501299 1.68913478 1.80501299 1.68913478 0.375 4.375 C-0.07875 5.24125 -0.5325 6.1075 -1 7 C-3.125 8.1875 -3.125 8.1875 -5 9 C-5.33 9.66 -5.66 10.32 -6 11 C-6.66 10.67 -7.32 10.34 -8 10 C-8 9.34 -8 8.68 -8 8 C-7.34 8 -6.68 8 -6 8 C-6 7.34 -6 6.68 -6 6 C-5.34 6 -4.68 6 -4 6 C-4 5.34 -4 4.68 -4 4 C-3.34 4 -2.68 4 -2 4 C-2 3.34 -2 2.68 -2 2 C-1.34 2 -0.68 2 0 2 C0 1.34 0 0.68 0 0 Z " fill="#475A57" transform="translate(237,209)"/>
<path d="M0 0 C0.66 0.33 1.32 0.66 2 1 C1.175 1.721875 0.35 2.44375 -0.5 3.1875 C-3.24407806 5.72917366 -3.24407806 5.72917366 -3.3125 8.8125 C-3.1578125 9.8953125 -3.1578125 9.8953125 -3 11 C-3.99 11.33 -4.98 11.66 -6 12 C-6.33 13.98 -6.66 15.96 -7 18 C-7.99 18 -8.98 18 -10 18 C-10 18.66 -10 19.32 -10 20 C-10.66 20 -11.32 20 -12 20 C-11.39246975 16.59783062 -10.04845528 14.73127371 -8 12 C-7.29485154 9.85266073 -7.29485154 9.85266073 -7 8 C-6.34 8 -5.68 8 -5 8 C-4.9175 7.4225 -4.835 6.845 -4.75 6.25 C-3.79468987 3.3840696 -2.21530827 2.0009236 0 0 Z " fill="#327B78" transform="translate(230,129)"/>
<path d="M0 0 C3.3 0.99 6.6 1.98 10 3 C10 4.32 10 5.64 10 7 C6.7 6.67 3.4 6.34 0 6 C0 5.34 0 4.68 0 4 C-1.98 4 -3.96 4 -6 4 C-6 3.34 -6 2.68 -6 2 C-4.02 2 -2.04 2 0 2 C0 1.34 0 0.68 0 0 Z " fill="#67847F" transform="translate(251,277)"/>
<path d="M0 0 C2.16874252 0.50603992 3.99967627 0.99983813 6 2 C6 2.66 6 3.32 6 4 C6.66 4 7.32 4 8 4 C8 4.66 8 5.32 8 6 C8.66 6 9.32 6 10 6 C10 6.66 10 7.32 10 8 C10.66 8 11.32 8 12 8 C12 8.66 12 9.32 12 10 C12.66 10 13.32 10 14 10 C14 10.66 14 11.32 14 12 C14.66 12 15.32 12 16 12 C15.67 12.66 15.34 13.32 15 14 C11.20663713 13.43738888 9.45505887 11.83201153 6.8125 9.125 C6.11769531 8.42632812 5.42289063 7.72765625 4.70703125 7.0078125 C3 5 3 5 2 2 C1.34 1.34 0.68 0.68 0 0 Z " fill="#5A6D6B" transform="translate(163,125)"/>
<path d="M0 0 C2.73826439 2.17450408 5.451054 4.37220049 8.125 6.625 C10.94615605 9.03796192 10.94615605 9.03796192 14 11 C14.99 12.485 14.99 12.485 16 14 C14.68 14 13.36 14 12 14 C12 13.34 12 12.68 12 12 C10.68 12 9.36 12 8 12 C8 11.34 8 10.68 8 10 C7.34 10 6.68 10 6 10 C6 9.34 6 8.68 6 8 C5.34 8 4.68 8 4 8 C4 7.34 4 6.68 4 6 C3.34 6 2.68 6 2 6 C2 5.34 2 4.68 2 4 C1.34 4 0.68 4 0 4 C0 2.68 0 1.36 0 0 Z " fill="#495749" transform="translate(7,269)"/>
<path d="M0 0 C0.33 0.66 0.66 1.32 1 2 C1.66 2.33 2.32 2.66 3 3 C2.67 3.66 2.34 4.32 2 5 C3.65 4.67 5.3 4.34 7 4 C6.67 4.66 6.34 5.32 6 6 C4.68 6 3.36 6 2 6 C2 6.66 2 7.32 2 8 C-0.64 8 -3.28 8 -6 8 C-6 7.67 -6 7.34 -6 7 C-4.02 7 -2.04 7 0 7 C0 6.34 0 5.68 0 5 C-2.97 5 -5.94 5 -9 5 C-6.3534665 2.3534665 -3.43778736 1.40058003 0 0 Z " fill="#4D8280" transform="translate(377,275)"/>
<path d="M0 0 C0.66 0.33 1.32 0.66 2 1 C-0.12951298 4.80855205 -2.55284477 7.9126008 -5.5 11.125 C-6.66015625 12.39730469 -6.66015625 12.39730469 -7.84375 13.6953125 C-9.53212739 15.49991876 -11.23603021 17.26995271 -13 19 C-13.66 18.67 -14.32 18.34 -15 18 C-12.82824569 15.07648458 -10.6341397 12.59700829 -7.8125 10.3125 C-4.98352767 8.30609749 -4.98352767 8.30609749 -4 6 C-4.66 5.67 -5.32 5.34 -6 5 C-5.38125 4.731875 -4.7625 4.46375 -4.125 4.1875 C-1.7004767 3.04443152 -1.7004767 3.04443152 0 0 Z " fill="#0F9BA2" transform="translate(216,150)"/>
<path d="M0 0 C24.1478787 -0.86647094 24.1478787 -0.86647094 31 4 C31.99 5.485 31.99 5.485 33 7 C32.360625 6.731875 31.72125 6.46375 31.0625 6.1875 C20.31366494 1.8254411 20.31366494 1.8254411 9 3 C9 2.34 9 1.68 9 1 C6.03 1 3.06 1 0 1 C0 0.67 0 0.34 0 0 Z " fill="#10958C" transform="translate(352,118)"/>
<path d="M0 0 C0.99 0.33 1.98 0.66 3 1 C3 3.31 3 5.62 3 8 C3.66 8 4.32 8 5 8 C5.33 9.98 5.66 11.96 6 14 C5.34 14 4.68 14 4 14 C4 13.34 4 12.68 4 12 C3.34 12 2.68 12 2 12 C2 11.34 2 10.68 2 10 C1.34 10 0.68 10 0 10 C-1.125 6.6875 -1.125 6.6875 -2 3 C-1.34 2.01 -0.68 1.02 0 0 Z " fill="#799290" transform="translate(209,239)"/>
<path d="M0 0 C0.70189453 0.00451172 1.40378906 0.00902344 2.12695312 0.01367188 C3.85550538 0.02543073 5.58401365 0.04336546 7.3125 0.0625 C6.26171875 1.55078125 6.26171875 1.55078125 4.3125 3.0625 C0.95703125 3.35546875 0.95703125 3.35546875 -2.875 3.25 C-4.14730469 3.22292969 -5.41960938 3.19585937 -6.73046875 3.16796875 C-8.19419922 3.11576172 -8.19419922 3.11576172 -9.6875 3.0625 C-10.0175 2.4025 -10.3475 1.7425 -10.6875 1.0625 C-7.06882441 -0.1437252 -3.76243749 -0.04566918 0 0 Z " fill="#109696" transform="translate(34.6875,236.9375)"/>
<path d="M0 0 C0 1.65 0 3.3 0 5 C-0.99 5 -1.98 5 -3 5 C-3 6.32 -3 7.64 -3 9 C-4.98 9 -6.96 9 -9 9 C-8.67 7.68 -8.34 6.36 -8 5 C-7.34 5 -6.68 5 -6 5 C-5.71125 4.360625 -5.4225 3.72125 -5.125 3.0625 C-3.72314735 0.49243681 -2.91896073 0 0 0 Z " fill="#30A1A0" transform="translate(170,197)"/>
<path d="M0 0 C-0.47205119 4.24846075 -2.88877522 6.26819288 -6 9 C-6.66 9 -7.32 9 -8 9 C-8.33 9.99 -8.66 10.98 -9 12 C-9.99 12.33 -10.98 12.66 -12 13 C-12 12.34 -12 11.68 -12 11 C-11.34 10.67 -10.68 10.34 -10 10 C-9.54625 9.071875 -9.0925 8.14375 -8.625 7.1875 C-6.4925601 3.00463711 -4.93464485 0 0 0 Z " fill="#1F999D" transform="translate(236,130)"/>
<path d="M0 0 C0.56960449 0.13712402 1.13920898 0.27424805 1.72607422 0.41552734 C8.86614593 2.00268358 15.82773342 2.42135535 23.125 2.625 C24.27226563 2.66367187 25.41953125 2.70234375 26.6015625 2.7421875 C29.40089117 2.83549846 32.20022936 2.92128645 35 3 C35 3.33 35 3.66 35 4 C30.81912848 4.07441989 26.6386127 4.12872818 22.45727539 4.16479492 C21.03630859 4.1798376 19.61538787 4.20027704 18.19458008 4.22631836 C16.14653114 4.26290347 14.0990985 4.27977097 12.05078125 4.29296875 C10.20480347 4.31653442 10.20480347 4.31653442 8.3215332 4.34057617 C4.745783 3.97393365 2.85442569 3.14039627 0 1 C0 0.67 0 0.34 0 0 Z " fill="#BFD0C0" transform="translate(20,280)"/>
<path d="M0 0 C2 3 2 3 1.79296875 5.55859375 C1.49326172 6.98365234 1.49326172 6.98365234 1.1875 8.4375 C0.99542969 9.38496094 0.80335937 10.33242188 0.60546875 11.30859375 C-0.13687234 14.60841964 -0.92985957 17.7895787 -2 21 C-3 20 -3 20 -3.09765625 16.40234375 C-3.0909822 14.91403133 -3.07902183 13.42573568 -3.0625 11.9375 C-3.05798828 11.17888672 -3.05347656 10.42027344 -3.04882812 9.63867188 C-3.0370068 7.75908129 -3.01907078 5.87953101 -3 4 C-2.01 3.67 -1.02 3.34 0 3 C0 2.01 0 1.02 0 0 Z " fill="#687773" transform="translate(8,248)"/>
<path d="M0 0 C0.66 0.33 1.32 0.66 2 1 C-1.23076923 7.92307692 -1.23076923 7.92307692 -4 10 C-4.99 10 -5.98 10 -7 10 C-7.33 10.66 -7.66 11.32 -8 12 C-8.66 12 -9.32 12 -10 12 C-10 10.68 -10 9.36 -10 8 C-8.68 8 -7.36 8 -6 8 C-6 7.34 -6 6.68 -6 6 C-5.34 6 -4.68 6 -4 6 C-4 5.34 -4 4.68 -4 4 C-3.34 4 -2.68 4 -2 4 C-2 3.34 -2 2.68 -2 2 C-1.34 2 -0.68 2 0 2 C0 1.34 0 0.68 0 0 Z " fill="#325B57" transform="translate(19,121)"/>
<path d="M0 0 C1.98 0 3.96 0 6 0 C2.13439169 2.93253044 -1.47019809 5.28967574 -6 7.0625 C-6.86625 7.40410156 -7.7325 7.74570313 -8.625 8.09765625 C-10.40166153 8.77267074 -12.19695988 9.39898663 -14 10 C-14 9.34 -14 8.68 -14 8 C-13.34 8 -12.68 8 -12 8 C-12 7.34 -12 6.68 -12 6 C-10.68 6 -9.36 6 -8 6 C-8 5.34 -8 4.68 -8 4 C-6.68 4 -5.36 4 -4 4 C-4 3.34 -4 2.68 -4 2 C-2.68 2 -1.36 2 0 2 C0 1.34 0 0.68 0 0 Z " fill="#4B5A55" transform="translate(249,117)"/>
<path d="M0 0 C0.92232422 0.00902344 1.84464844 0.01804687 2.79492188 0.02734375 C5.05105809 0.0507234 7.30663684 0.08349084 9.5625 0.125 C9.5625 0.455 9.5625 0.785 9.5625 1.125 C8.93158447 1.18034912 8.30066895 1.23569824 7.65063477 1.29272461 C4.8083232 1.5446812 1.96667781 1.80349769 -0.875 2.0625 C-2.36483398 2.19301758 -2.36483398 2.19301758 -3.88476562 2.32617188 C-4.82900391 2.41318359 -5.77324219 2.50019531 -6.74609375 2.58984375 C-8.05791626 2.70767212 -8.05791626 2.70767212 -9.39624023 2.82788086 C-11.42764456 2.91585048 -11.42764456 2.91585048 -12.4375 4.125 C-14.43708364 4.16580783 -16.43795254 4.16754356 -18.4375 4.125 C-17.4375 2.125 -17.4375 2.125 -14.52734375 1.0078125 C-9.71774351 -0.24836216 -4.93730549 -0.09241897 0 0 Z " fill="#CFE4E1" transform="translate(268.4375,115.875)"/>
<path d="M0 0 C0.5775 0.20625 1.155 0.4125 1.75 0.625 C1.75 1.285 1.75 1.945 1.75 2.625 C3.07 2.955 4.39 3.285 5.75 3.625 C-3.16 3.625 -12.07 3.625 -21.25 3.625 C-21.25 3.295 -21.25 2.965 -21.25 2.625 C-20.21359375 2.57601562 -19.1771875 2.52703125 -18.109375 2.4765625 C-16.73955792 2.40150403 -15.36976752 2.32595753 -14 2.25 C-13.31808594 2.2190625 -12.63617188 2.188125 -11.93359375 2.15625 C-7.84733977 1.91821579 -3.723447 -0.6205745 0 0 Z " fill="#BBE5E2" transform="translate(49.25,113.375)"/>
<path d="M0 0 C0.99 -0.33 1.98 -0.66 3 -1 C4.84802969 -1.01578603 6.69696343 -0.96681127 8.54296875 -0.87890625 C10.15268555 -0.80639648 10.15268555 -0.80639648 11.79492188 -0.73242188 C12.91447266 -0.67634766 14.03402344 -0.62027344 15.1875 -0.5625 C16.88422852 -0.48418945 16.88422852 -0.48418945 18.61523438 -0.40429688 C21.4104328 -0.27456193 24.2052794 -0.13959359 27 0 C27 0.33 27 0.66 27 1 C22.5163955 1.19272034 18.0325155 1.3713676 13.54785156 1.53710938 C12.0229599 1.59543502 10.49820906 1.65757438 8.97363281 1.72363281 C6.77955776 1.81803239 4.58533851 1.89861231 2.390625 1.9765625 C1.7113092 2.00875885 1.03199341 2.0409552 0.33209229 2.0741272 C-3.32373792 2.18928821 -5.89655637 2.02068663 -9 0 C-5.49595163 -1.16801612 -3.58912879 -0.59818813 0 0 Z " fill="#1BA1A6" transform="translate(31,280)"/>
<path d="M0 0 C0.33 0 0.66 0 1 0 C1.50921999 5.34680994 0.22864566 7.78482372 -3 12 C-3.66 12.928125 -4.32 13.85625 -5 14.8125 C-7.06580169 17.0719706 -8.01056095 17.67970296 -11 18 C-9.62316185 14.84015644 -8.06553383 12.96495482 -5.5 10.6875 C-1.97223022 7.2990808 -0.87635194 4.77124943 0 0 Z " fill="#0D9A91" transform="translate(390,142)"/>
<path d="M0 0 C1.65 0 3.3 0 5 0 C3.50871999 3.79598549 1.34266559 5.71720399 -2 8 C-2.99 8 -3.98 8 -5 8 C-4.67 6.68 -4.34 5.36 -4 4 C-3.34 4 -2.68 4 -2 4 C-1.34 2.68 -0.68 1.36 0 0 Z " fill="#91CAC4" transform="translate(384,272)"/>
<path d="M0 0 C0.66 0.33 1.32 0.66 2 1 C1.50628906 1.47050781 1.01257813 1.94101563 0.50390625 2.42578125 C-0.13675781 3.04839844 -0.77742187 3.67101562 -1.4375 4.3125 C-2.07558594 4.92738281 -2.71367187 5.54226562 -3.37109375 6.17578125 C-5.2221418 8.00644056 -5.2221418 8.00644056 -6 11 C-8.0625 11.6875 -8.0625 11.6875 -10 12 C-9.40323978 8.70326367 -8.31828226 6.8276819 -6.125 4.3125 C-5.61195313 3.71050781 -5.09890625 3.10851562 -4.5703125 2.48828125 C-3 1 -3 1 0 0 Z " fill="#8FAFAB" transform="translate(200,163)"/>
<path d="M0 0 C-4.67266246 3.58237455 -7.02023637 4.11073636 -13 4 C-13 4.66 -13 5.32 -13 6 C-14.32 6 -15.64 6 -17 6 C-17 5.01 -17 4.02 -17 3 C-11.10261508 0.70657253 -6.33393082 -0.34548714 0 0 Z " fill="#259A99" transform="translate(265,118)"/>
<path d="M0 0 C0.66 0.33 1.32 0.66 2 1 C1.25 5.75 1.25 5.75 -1 8 C-1.825 8.845625 -2.65 9.69125 -3.5 10.5625 C-6 13 -6 13 -8 14 C-8.66 13.67 -9.32 13.34 -10 13 C-9.67 12.01 -9.34 11.02 -9 10 C-8.01 10.33 -7.02 10.66 -6 11 C-5.34 9.35 -4.68 7.7 -4 6 C-3.01 6 -2.02 6 -1 6 C-0.67 4.02 -0.34 2.04 0 0 Z " fill="#84C4BF" transform="translate(190,154)"/>
<path d="M0 0 C0.66 0.33 1.32 0.66 2 1 C2 1.66 2 2.32 2 3 C2.66 3 3.32 3 4 3 C4 3.66 4 4.32 4 5 C4.66 5 5.32 5 6 5 C6 5.66 6 6.32 6 7 C6.66 7 7.32 7 8 7 C7.67 7.66 7.34 8.32 7 9 C5.68 9 4.36 9 3 9 C3 8.34 3 7.68 3 7 C1.68 6.67 0.36 6.34 -1 6 C-1.33 4.68 -1.66 3.36 -2 2 C-1.34 2 -0.68 2 0 2 C0 1.34 0 0.68 0 0 Z " fill="#517B7B" transform="translate(183,144)"/>
<path d="M0 0 C0.66 0.33 1.32 0.66 2 1 C1.67 1.66 1.34 2.32 1 3 C0.34 3 -0.32 3 -1 3 C-0.896875 3.721875 -0.79375 4.44375 -0.6875 5.1875 C-1.1329965 9.1969685 -2.94234106 10.49827905 -6 13 C-8.3125 13.8125 -8.3125 13.8125 -10 14 C-10 13.34 -10 12.68 -10 12 C-9.34 12 -8.68 12 -8 12 C-8 11.34 -8 10.68 -8 10 C-7.34 10 -6.68 10 -6 10 C-6 9.34 -6 8.68 -6 8 C-5.34 8 -4.68 8 -4 8 C-3.855625 7.38125 -3.71125 6.7625 -3.5625 6.125 C-3 4 -3 4 -2 2 C-1.34 2 -0.68 2 0 2 C0 1.34 0 0.68 0 0 Z " fill="#495E57" transform="translate(163,199)"/>
<path d="M0 0 C0.99 0.33 1.98 0.66 3 1 C3 2.32 3 3.64 3 5 C2.34 5 1.68 5 1 5 C1 6.32 1 7.64 1 9 C0.34 9 -0.32 9 -1 9 C-1 9.66 -1 10.32 -1 11 C-2.65 11.66 -4.3 12.32 -6 13 C-5.360625 12.319375 -4.72125 11.63875 -4.0625 10.9375 C-1.66906372 7.52866651 -1.39352024 5.09261048 -1 1 C-0.67 0.67 -0.34 0.34 0 0 Z " fill="#40524E" transform="translate(390,266)"/>
<path d="M0 0 C0.66 0.99 1.32 1.98 2 3 C1.29875 3.4125 0.5975 3.825 -0.125 4.25 C-3.14153323 6.08615066 -6.07249245 8.02563445 -9 10 C-9.66 9.67 -10.32 9.34 -11 9 C-10.67 8.01 -10.34 7.02 -10 6 C-7.68020619 4.96898053 -5.34570085 3.97063483 -3 3 C-1.11970761 1.46048953 -1.11970761 1.46048953 0 0 Z " fill="#4EA19A" transform="translate(161,207)"/>
<path d="M0 0 C-0.75925781 0.53109375 -1.51851562 1.0621875 -2.30078125 1.609375 C-3.29464844 2.31578125 -4.28851563 3.0221875 -5.3125 3.75 C-6.29863281 4.44609375 -7.28476563 5.1421875 -8.30078125 5.859375 C-10.72221744 7.77970356 -12.19889037 9.53940715 -14 12 C-14.66 12 -15.32 12 -16 12 C-13.80230296 6.80544335 -10.61325501 3.00021811 -5.875 0.0625 C-3 -1 -3 -1 0 0 Z " fill="#BFDAD1" transform="translate(242,125)"/>
<path d="M0 0 C-1.28716647 1.00578589 -2.57988658 2.00446798 -3.875 3 C-4.95394531 3.8353125 -4.95394531 3.8353125 -6.0546875 4.6875 C-8 6 -8 6 -10 6 C-10.33 5.01 -10.66 4.02 -11 3 C-9.68 2.67 -8.36 2.34 -7 2 C-7 1.01 -7 0.02 -7 -1 C-3.51418144 -2.2020064 -3.32007656 -2.21338437 0 0 Z " fill="#81C3BF" transform="translate(233,223)"/>
<path d="M0 0 C1.32 0.66 2.64 1.32 4 2 C2.90398831 3.00893131 1.79786082 4.00688225 0.6875 5 C-0.23482422 5.8353125 -0.23482422 5.8353125 -1.17578125 6.6875 C-3 8 -3 8 -6 8 C-6 7.34 -6 6.68 -6 6 C-5.34 6 -4.68 6 -4 6 C-4 5.34 -4 4.68 -4 4 C-3.34 4 -2.68 4 -2 4 C-2 3.34 -2 2.68 -2 2 C-1.34 2 -0.68 2 0 2 C0 1.34 0 0.68 0 0 Z " fill="#527872" transform="translate(181,181)"/>
<path d="M0 0 C5.72214278 0.44016483 10.33686048 2.77310745 15 6 C15.99 7.485 15.99 7.485 17 9 C13.10391502 7.51095825 9.40902982 5.75621287 5.6875 3.875 C4.61886719 3.33617188 3.55023438 2.79734375 2.44921875 2.2421875 C1.64097656 1.83226563 0.83273438 1.42234375 0 1 C0 0.67 0 0.34 0 0 Z " fill="#C1E0DD" transform="translate(150,120)"/>
<path d="M0 0 C0 0.66 0 1.32 0 2 C-4.95 2 -9.9 2 -15 2 C-10.73298482 -2.26701518 -5.47416361 -0.83504191 0 0 Z " fill="#119699" transform="translate(144,279)"/>
<path d="M0 0 C0.66 0.33 1.32 0.66 2 1 C2 4.65351863 1.11057699 6.06026776 -1 9 C-3.1875 10.3125 -3.1875 10.3125 -5 11 C-3.68 9.02 -2.36 7.04 -1 5 C-1.99 5.33 -2.98 5.66 -4 6 C-4 5.34 -4 4.68 -4 4 C-3.34 4 -2.68 4 -2 4 C-2 3.34 -2 2.68 -2 2 C-1.34 2 -0.68 2 0 2 C0 1.34 0 0.68 0 0 Z " fill="#3F7B76" transform="translate(149,215)"/>
<path d="M0 0 C0.66 0.33 1.32 0.66 2 1 C1.66354211 4.14027363 0.94763914 5.05098295 -1.375 7.3125 C-2.674375 8.1478125 -2.674375 8.1478125 -4 9 C-4.99 8.67 -5.98 8.34 -7 8 C-6.67 7.34 -6.34 6.68 -6 6 C-5.34 6 -4.68 6 -4 6 C-4 5.34 -4 4.68 -4 4 C-3.34 4 -2.68 4 -2 4 C-2 3.34 -2 2.68 -2 2 C-1.34 2 -0.68 2 0 2 C0 1.34 0 0.68 0 0 Z " fill="#667C75" transform="translate(221,225)"/>
<path d="M0 0 C2.31 0 4.62 0 7 0 C6.67 0.99 6.34 1.98 6 3 C2.7 3.33 -0.6 3.66 -4 4 C-4 3.34 -4 2.68 -4 2 C-2.68 2 -1.36 2 0 2 C0 1.34 0 0.68 0 0 Z " fill="#596A66" transform="translate(21,235)"/>
<path d="M0 0 C2.97 0.33 5.94 0.66 9 1 C6.40386733 3.13253755 4.36932827 4.55075623 1 5 C0.34 4.67 -0.32 4.34 -1 4 C-0.67 2.68 -0.34 1.36 0 0 Z " fill="#649C99" transform="translate(372,236)"/>
<path d="M0 0 C0.66 0 1.32 0 2 0 C0.98823563 3.40320742 0.35156418 4.75725331 -2.625 6.8125 C-3.40875 7.204375 -4.1925 7.59625 -5 8 C-5 7.01 -5 6.02 -5 5 C-5.99 5 -6.98 5 -8 5 C-8 4.34 -8 3.68 -8 3 C-7.34 3 -6.68 3 -6 3 C-6 2.34 -6 1.68 -6 1 C-5.34 1.33 -4.68 1.66 -4 2 C-3.01 2.33 -2.02 2.66 -1 3 C-0.67 2.01 -0.34 1.02 0 0 Z " fill="#187C7E" transform="translate(191,176)"/>
<path d="M0 0 C0.66 0.33 1.32 0.66 2 1 C-0.97 4.3 -3.94 7.6 -7 11 C-7.33 10.01 -7.66 9.02 -8 8 C-5.36 5.36 -2.72 2.72 0 0 Z " fill="#279D8C" transform="translate(260,169)"/>
<path d="M0 0 C1.27875 0.103125 2.5575 0.20625 3.875 0.3125 C4.95394531 0.39951172 4.95394531 0.39951172 6.0546875 0.48828125 C8 1 8 1 10 4 C8.375 4.75 8.375 4.75 6 5 C2.75 3.125 2.75 3.125 0 1 C0 0.67 0 0.34 0 0 Z " fill="#9BD1C6" transform="translate(241,275)"/>
<path d="M0 0 C0.33 0 0.66 0 1 0 C1.22036864 3.85645121 0.60355101 6.49223216 -1 10 C-1.99 10 -2.98 10 -4 10 C-3.52371389 5.8086822 -2.89509268 3.13635041 0 0 Z " fill="#2EA4A3" transform="translate(13,244)"/>
<path d="M0 0 C0.66 0.66 1.32 1.32 2 2 C-0.97 4.97 -3.94 7.94 -7 11 C-7.33 10.01 -7.66 9.02 -8 8 C-7.34 8 -6.68 8 -6 8 C-5.34 6.68 -4.68 5.36 -4 4 C-3.34 4 -2.68 4 -2 4 C-1.34 2.68 -0.68 1.36 0 0 Z " fill="#29A190" transform="translate(198,235)"/>
<path d="M0 0 C0.66 0.33 1.32 0.66 2 1 C-1.3 4.63 -4.6 8.26 -8 12 C-8 8.89448334 -7.4606285 7.64738916 -6 5 C-5.34 5 -4.68 5 -4 5 C-4 4.34 -4 3.68 -4 3 C-2 1.375 -2 1.375 0 0 Z " fill="#11938A" transform="translate(235,195)"/>
<path d="M0 0 C0.33 0.99 0.66 1.98 1 3 C-0.3125 4.5 -0.3125 4.5 -2 6 C-2.99 6 -3.98 6 -5 6 C-5 6.66 -5 7.32 -5 8 C-6.65 8 -8.3 8 -10 8 C-6.66666667 5.33333333 -3.33333333 2.66666667 0 0 Z " fill="#26A0A2" transform="translate(141,228)"/>
<path d="M0 0 C0.66 0.33 1.32 0.66 2 1 C1.52949219 1.39832031 1.05898437 1.79664063 0.57421875 2.20703125 C-0.35970703 3.00173828 -0.35970703 3.00173828 -1.3125 3.8125 C-1.92738281 4.33457031 -2.54226562 4.85664063 -3.17578125 5.39453125 C-4.85424679 6.87172469 -6.43882034 8.40039131 -8 10 C-7.52723148 5.74508335 -5.07452523 3.77457155 -2 1 C-1.34 0.67 -0.68 0.34 0 0 Z " fill="#1C999D" transform="translate(158,212)"/>
<path d="M0 0 C0.99 0.33 1.98 0.66 3 1 C2.375 2.875 2.375 2.875 1 5 C-2.125 6.25 -2.125 6.25 -5 7 C-4.67 6.01 -4.34 5.02 -4 4 C-3.34 4 -2.68 4 -2 4 C-2 3.34 -2 2.68 -2 2 C-1.34 2 -0.68 2 0 2 C0 1.34 0 0.68 0 0 Z " fill="#5F7B79" transform="translate(203,157)"/>
<path d="M0 0 C0.66 0 1.32 0 2 0 C2.33 0.99 2.66 1.98 3 3 C2.01 3.495 2.01 3.495 1 4 C0.34 3.67 -0.32 3.34 -1 3 C-0.67 3.99 -0.34 4.98 0 6 C-3 8 -3 8 -6 8 C-6 7.34 -6 6.68 -6 6 C-5.34 6 -4.68 6 -4 6 C-4 5.34 -4 4.68 -4 4 C-3.34 4 -2.68 4 -2 4 C-2 3.34 -2 2.68 -2 2 C-1.34 2 -0.68 2 0 2 C0 1.34 0 0.68 0 0 Z " fill="#4B6362" transform="translate(211,149)"/>
<path d="M0 0 C0.6875 1.625 0.6875 1.625 1 4 C-0.4375 7.25 -0.4375 7.25 -2 10 C-2.66 9.67 -3.32 9.34 -4 9 C-3.67 8.34 -3.34 7.68 -3 7 C-3.66 6.67 -4.32 6.34 -5 6 C-3.625 4 -3.625 4 -2 2 C-1.34 2 -0.68 2 0 2 C0 1.34 0 0.68 0 0 Z " fill="#66BEB5" transform="translate(390,262)"/>
<path d="M0 0 C0.66 0.33 1.32 0.66 2 1 C2.99 0.67 3.98 0.34 5 0 C4.4375 1.9375 4.4375 1.9375 3 4 C-0.625 4.75 -0.625 4.75 -4 5 C-4 4.01 -4 3.02 -4 2 C-2.125 0.9375 -2.125 0.9375 0 0 Z " fill="#1C7268" transform="translate(172,263)"/>
<path d="M0 0 C2.0625 0.4375 2.0625 0.4375 4 1 C3.34 3.31 2.68 5.62 2 8 C1.34 8 0.68 8 0 8 C-0.38063221 5.6739143 -0.71269945 3.33944736 -1 1 C-0.67 0.67 -0.34 0.34 0 0 Z " fill="#6AB4B3" transform="translate(187,152)"/>
<path d="M0 0 C0 4.31618166 -2.13270348 5.92789659 -5 9 C-5.66 9 -6.32 9 -7 9 C-6.8125 6.6875 -6.8125 6.6875 -6 4 C-3.5 2.25 -3.5 2.25 -1 1 C-0.67 0.67 -0.34 0.34 0 0 Z " fill="#139CA1" transform="translate(149,222)"/>
<path d="M0 0 C1.32 0 2.64 0 4 0 C3.67 0.99 3.34 1.98 3 3 C2.01 3.33 1.02 3.66 0 4 C-0.33 4.99 -0.66 5.98 -1 7 C-1.99 6.67 -2.98 6.34 -4 6 C-4 5.34 -4 4.68 -4 4 C-3.34 4 -2.68 4 -2 4 C-2 3.34 -2 2.68 -2 2 C-1.34 2 -0.68 2 0 2 C0 1.34 0 0.68 0 0 Z " fill="#6E8684" transform="translate(227,219)"/>
<path d="M0 0 C0.66 0 1.32 0 2 0 C2 1.32 2 2.64 2 4 C3.32 3.67 4.64 3.34 6 3 C6.33 4.98 6.66 6.96 7 9 C6.34 9 5.68 9 5 9 C5 8.34 5 7.68 5 7 C4.34 7 3.68 7 3 7 C3 6.34 3 5.68 3 5 C2.34 5 1.68 5 1 5 C0.67 3.35 0.34 1.7 0 0 Z " fill="#415451" transform="translate(208,244)"/>
<path d="M0 0 C0.66 0.66 1.32 1.32 2 2 C1.625 4.625 1.625 4.625 1 7 C-0.32 6.67 -1.64 6.34 -3 6 C-2.67 4.68 -2.34 3.36 -2 2 C-1.34 2 -0.68 2 0 2 C0 1.34 0 0.68 0 0 Z " fill="#579693" transform="translate(189,173)"/>
<path d="M0 0 C1.65 0 3.3 0 5 0 C4.67 0.99 4.34 1.98 4 3 C3.030625 3.12375 2.06125 3.2475 1.0625 3.375 C0.051875 3.58125 -0.95875 3.7875 -2 4 C-2.33 4.66 -2.66 5.32 -3 6 C-3 5.01 -3 4.02 -3 3 C-2.34 3 -1.68 3 -1 3 C-0.67 2.01 -0.34 1.02 0 0 Z M2 3 C2 6 2 6 2 6 Z " fill="#93CDC9" transform="translate(213,236)"/>
<path d="M0 0 C0.66 0.33 1.32 0.66 2 1 C-0.64 3.64 -3.28 6.28 -6 9 C-6.33 8.34 -6.66 7.68 -7 7 C-6.67 6.34 -6.34 5.68 -6 5 C-5.34 5 -4.68 5 -4 5 C-3.71125 4.360625 -3.4225 3.72125 -3.125 3.0625 C-2 1 -2 1 0 0 Z " fill="#B9E2D9" transform="translate(168,197)"/>
<path d="M0 0 C0.99 0.33 1.98 0.66 3 1 C1.92598892 3.91517292 1.22189824 5.77810176 -1 8 C-1.99 7.67 -2.98 7.34 -4 7 C-3.34 6.401875 -2.68 5.80375 -2 5.1875 C0.3373846 3.12498166 0.3373846 3.12498166 0 0 Z " fill="#35A2A0" transform="translate(184,180)"/>
<path d="M0 0 C-0.66 0.66 -1.32 1.32 -2 2 C-2.99 2 -3.98 2 -5 2 C-5.33 2.66 -5.66 3.32 -6 4 C-6.66 4 -7.32 4 -8 4 C-8 2.68 -8 1.36 -8 0 C-4.71303767 -0.79953138 -3.28976808 -1.09658936 0 0 Z " fill="#527D7B" transform="translate(17,129)"/>
<path d="M0 0 C3.3 0 6.6 0 10 0 C10 0.99 10 1.98 10 3 C9.01 3.33 8.02 3.66 7 4 C7 3.34 7 2.68 7 2 C4.69 1.67 2.38 1.34 0 1 C0 0.67 0 0.34 0 0 Z " fill="#60BAB7" transform="translate(325,236)"/>
<path d="M0 0 C1.4540625 0.0309375 1.4540625 0.0309375 2.9375 0.0625 C2.6075 1.0525 2.2775 2.0425 1.9375 3.0625 C0.2875 3.3925 -1.3625 3.7225 -3.0625 4.0625 C-3.3925 3.0725 -3.7225 2.0825 -4.0625 1.0625 C-3.0625 0.0625 -3.0625 0.0625 0 0 Z " fill="#45A7AD" transform="translate(209.0625,155.9375)"/>
<path d="M0 0 C-0.33 0.66 -0.66 1.32 -1 2 C-7.99641577 3.37634409 -7.99641577 3.37634409 -11.5 2.0625 C-11.995 1.711875 -12.49 1.36125 -13 1 C-8.60563789 0.14256349 -4.47427924 -0.08948558 0 0 Z " fill="#79BFBD" transform="translate(52,117)"/>
<path d="M0 0 C1.32 0.33 2.64 0.66 4 1 C4 1.66 4 2.32 4 3 C4.66 3 5.32 3 6 3 C5.67 4.32 5.34 5.64 5 7 C2.47411298 4.63707344 1.11179163 3.33537489 0 0 Z " fill="#67817A" transform="translate(387,244)"/>
<path d="M0 0 C0.66 0 1.32 0 2 0 C2 0.66 2 1.32 2 2 C2.66 2 3.32 2 4 2 C4.66 3.65 5.32 5.3 6 7 C3.5625 6.3125 3.5625 6.3125 1 5 C0.1875 2.375 0.1875 2.375 0 0 Z " fill="#676A68" transform="translate(251,215)"/>
<path d="M0 0 C2.31 0 4.62 0 7 0 C5.25 3.875 5.25 3.875 3 5 C2.67 4.01 2.34 3.02 2 2 C1.34 1.34 0.68 0.68 0 0 Z " fill="#66BCB4" transform="translate(365,236)"/>
<path d="M0 0 C3.76488042 1.72154788 6.15063897 3.99234114 9 7 C6 7 6 7 4.39453125 5.46875 C3.87246094 4.8190625 3.35039062 4.169375 2.8125 3.5 C2.28269531 2.8503125 1.75289062 2.200625 1.20703125 1.53125 C0.80871094 1.0259375 0.41039062 0.520625 0 0 Z " fill="#C0E0D9" transform="translate(243,210)"/>
<path d="M0 0 C0.99 0.33 1.98 0.66 3 1 C2.67 1.99 2.34 2.98 2 4 C3.32 4.66 4.64 5.32 6 6 C3 6 3 6 1 5 C1 4.34 1 3.68 1 3 C0.34 3 -0.32 3 -1 3 C-0.67 2.01 -0.34 1.02 0 0 Z " fill="#374B48" transform="translate(14,156)"/>
<path d="M0 0 C0 0.66 0 1.32 0 2 C-2.64 2 -5.28 2 -8 2 C-6.14210462 -1.71579076 -3.44525918 -1.06921837 0 0 Z " fill="#CCCCCC" transform="translate(51,114)"/>
</svg>
